<svg id="Layer_1" data-name="Layer 1" xmlns="http://www.w3.org/2000/svg" width="200" height="508.11" viewBox="0 0 2500 508.11">
  <defs>
    <style>
      .cls-1 {
        fill: none;
      }

      .cls-2 {
        fill: #d2ca75;
      }
    </style>
  </defs>
  <path class="cls-1" d="M0,997.3H2500v508.11H0Z" transform="translate(0 -997.3)"/>
  <path class="cls-2" d="M2018,1243.07h18.5v92.39c0,8.66-.59,15-2.35,20.23-.56,3.48-2.91,6.94-5.76,11-6.91,9.83-17.89,15-32.32,15-10.39,0-18.5-2.89-23.1-9.25-5.19-6.91-8.08-18.46-8.08-33.48v-95.88h15v-2.3h-47.37v2.3h13.3v93.57c0,31.75,15.57,47.91,46.75,47.91,17.33,0,30-5.76,38.11-16.16q8.65-12.12,8.66-29.46v-95.87h12.71v-2.31H2018v2.32Zm-150.14-2.89H1861l-49.67,138.61h-8.67v2.89h28.3v-2.89H1814.2l20.22-55.42h43.32l20.23,55.42h-20.8v2.89h52v-2.89h-11l-50.26-138.61Zm-12.15,23.09L1877.1,1321h-41.57ZM1779,1324.49h-2.35c-8.08,35.23-24.24,53.15-49.06,53.15h-42.16V1199.76h26v-3.47H1645v3.47h17.33v177.86H1645v4.05h134v-57.18Zm510.48-81.42c9.83,0,17.32,2.9,22.5,8.08,4.62,4.63,8.66,12.71,12.15,23.69h1.73v-34.07h-108v2.3h13.88v135.72h-13.88v2.89H2326.4v-43.87h-2.31c-1.17,9.22-4.05,17.88-8.66,24.82-7.5,10.39-16.75,16.16-28.9,16.16h-35.8v-71.61h15c8.66,0,14.44,2.9,17.89,9.25,2.32,3.48,4.63,10.39,6.93,20.22h2.33v-61.2h-2.33c-2.89,11.55-5.75,19.63-9.83,23.1-2.89,4-9.24,5.74-17.88,5.74h-12.14v-61.22Zm-216,0h11v135.12h-11v2.91h50.82v-2.91h-16.19v-67h1.17l58.31,69.87h31.75v-2.91h-8.66l-56-67c36.39-1.18,54.85-13.85,54.85-37.56,0-23.1-20.81-34.06-61.23-34.06l-54.85.57Zm47.91-.58q19.9,0,29.46,5.2c8.08,5.19,12.15,13.27,12.15,26q0,34.63-36.39,34.66h-18.5v-65.26Zm328,.58h13.85v-2.3h-30.61v2.3h13.87v105.1l-64.11-107.4h-32.93v2.3h13.89v135.72h-13.89v2.87h35.24v-2.87h-19.07V1251.15h.57L2445.92,1384h3.47Zm-2261.9,1.73c0-16.17-5.2-27.72-16.17-35.8-12.13-8.65-31.77-13.28-59.48-13.28l-75.07.57v3.46H58.13v177.87H36.76v4h75.65v-4h-26v-83.74h21.36c53.13,0,79.7-16.14,79.7-49.08ZM142.43,1209c8.1,6.94,12.13,18.48,12.13,35.8,0,15-4.05,26.55-12.13,34-7.51,7.53-18.46,11.57-32.91,11.57H86.43v-90.65h16.76C122.23,1199.76,134.94,1202.65,142.43,1209ZM251,1237.3c-15.59,0-29.45,6.93-42.15,20.79-13.28,15-20.2,32.32-20.2,52.54,0,19.65,5.77,36.4,17.89,51.42s27.15,22.5,44.48,22.5c16.74,0,31.18-8.08,43.89-23.1a78.1,78.1,0,0,0,17.89-50.82c0-20.22-6.34-38.1-19.05-52.54C281,1244.23,267.16,1237.3,251,1237.3Zm-34.07,24.26c6.93-14.41,17.9-21.94,34.07-21.94,15.59,0,26.57,7.53,33.49,21.94,5.2,11.55,8.09,27.74,8.09,49.07,0,24.27-3.46,42.16-9.23,53.14-6.93,12.14-17.33,17.91-32.33,17.91s-26-5.77-32.35-17.91c-6.35-11-9.23-28.87-9.23-53.14,0-21.36,2.29-37.54,7.49-49.07Zm336.66-3.47c-12.7-13.86-26.56-20.79-42.74-20.79-15.59,0-29.45,6.93-42.15,20.79-13.28,15-19.63,32.32-19.63,52.54,0,19.65,5.77,37,17.31,51.42,12.13,15,26.56,22.5,44.46,22.5,16.74,0,31.76-8.08,43.89-23.1a78.06,78.06,0,0,0,17.9-50.82c0-20.22-6.33-38.1-19-52.54Zm-84.31,52.54c0-21.34,2.31-37.54,8.1-49.07,6.35-14.41,17.9-21.94,33.49-21.94s27.14,7.53,33.5,21.94c5.2,11.55,8.09,27.74,8.09,49.07,0,24.27-3.46,42.16-9.23,53.14-6.94,12.14-17.33,17.91-32.35,17.91s-26-5.77-32.33-17.91C472.16,1352.79,469.28,1334.9,469.28,1310.63Zm-37,27.15H430c-5.77,27.15-18.48,41-38.69,41H359V1243.07H376.3v-2.3h-45v2.3h9.24v135.72h-9.24v2.89H432.32v-43.9Zm288.73-263.91-4,1.15-7.51,8.1-28.87,24.25-5.77,5.2,1.15,1.73h3.48l1.15-1.73h1.74l2.89-4H687l1.72-2.88,6.36-4.05,11.55-11.54,4.61-2.31,4.61-5.77,3.47-1.73,3.46-4.62h2.31l1.72-3.46,6.94-5.2,3.46-4,1.16-.57a1.78,1.78,0,0,0,1.15-.57v-1.15h1.16v-2.32l4.61-2.31v-2.34c1.16-2.3,4.05-5.2,8.67-8.66l2.31-2.89c2.31-.57,4.61.58,6.35,3.46l4,5.77h2.89l1.16-1.74-15-28.3H753.4l-2.88,1.74v3.48l2.31,1.72a10.45,10.45,0,0,1,.57,11.55h-1.72v1.15l-2.9,2.31V1045l-.58,1.73h-1.15l-1.16.58v1.15l-7.52,5.21V1056h-1.16v1.73l-5.18,4.61-2.9,3.47h-2.3l-2.88,4c-1.17,1.76-2.33,2.9-2.9,4Zm-76.23,67c-3.48,2.31-5.77,4.62-6.34,5.77v4.62l1.72,5.2-1.72,2.88-2.31-1.16.57-6.35-1.16-1.74c-1.73.58-2.31,1.16-1.73,1.74l.58,2.31-1.16,2.89-.58,4c0,1.72,1.16,3.46,3.46,5.2l5.2,2.89.58,2.31,5.77-2.31v4l-9.24,7.51c-2.89,2.87-5.19,6.34-5.77,10.38v7.51l-5.19,4.05v1.15h-2.31v2.31l-5.77,5.19v4l-2.31,6.92,1.16.59,9.25-4.62v1.15c0,.59,0,1.16-1.16,1.74l-5.2,1.16V1224l4.05,3.47h2.31l.57-2.31h2.31l-.58,2.31-1.15,1.74h4.62l1.15,2.3h4.62l1.15.57,3.47,9.24,1.15,9.8,4.6,8.67,1.16,9.26,2.31,1.72,2.31,10.42h1.73c1.16-3.48,1.73-5.77,1.16-6.36l-1.16-.58-1.15-6.36-2.89-3.45-1.16-8.1-2.31-2.31-2.3-13.28-1.16-1.16v-4h-1.74L643.08,1224l3.46-4v-.59c2.89-2.31,5.77-1.72,7.51,1.74l1.73,9.23a.82.82,0,0,1,0,1.16l-.57,1.72,1.73,1.16v3.47l1.16,1.73,1.72,11.54,2.9,6.36v2.89l3.46,3.49,1.74,3.45-2.31.58-3.46-5.19h-2.31l-1.73,10.41.57.58.57.58,1.16.59,2.31,8.08,2.3,1.16,3.47,11,2.31,2.31,1.15,8.08,1.74,1.16v11l1.15.58v2.87l4.62,4,4,11,4,3.48,6.93,10.39,2.89,2.31h2.89l4.62,2.91,4,.58,1.74,2.31h3.46l1.15-4.6h1.16l1.72,2.3,1.16,14.44a64.8,64.8,0,0,1,0,15l-1.16.58v2.89l-2.89,9.23h1.15c.57,5.21,1.73,9.26,5.19,12.15-.57.58,0,1.17.57,1.74,0,.58-.57,1.75-2.31,2.89l6.36,5.21v2.31l2.31,2.31,3.47,1.72,1.73,4,4,.58,2.9-4.63c0-1.14-1.16-4-4-6.32l-3.46-2.9h-2.31l-.57,2.31-2.31-.58c2.89-3.48,2.89-6.36,1.74-7.5l-1.74-1.17,1.15-3.47c1.16-2.31,1.73-3.45,1.16-5.19l-2.89-4v-12.71l1.73-.59v-4l1.16-.58v-5.19l2.31-2.89,2.31.58v1.72a2.12,2.12,0,0,0,1.73-.58l.57-1.14.57.56h.58c2.89,6.94,4.61,11,4.61,12.69l-.57,5.78.57,1.72,2.31,2.32a9.63,9.63,0,0,1,.58,6.93l-1.73,1.74-1.73.58.57-8.66-2.31-1.15v-5.77l-1.15-.58v-2.91l-3.46-3.47.57-2.32-.57-2.31-2.31-1.75-1.73,5.21-2.31,1.14v.59c1.16.58,1.16,1.72,1.73,3.47l.58,4.61,1.16.58,2.89,6.91,1.72,19.64h2.9l1.15-1.14.57-1.75,2.88-2.31a43.32,43.32,0,0,0,2.32-8.67c.57-4.6,1.16-7.49.57-9.23l-2.89-9.83v-4.59l-2.88-5.19v-1.75l.57-1.73-2.31-9.83h-2.29v4l-1.16,2.89-2.3.58,1.15-8.1,1.72-.56v-3.47l1.74-.59,3.47-9.26-1.74-6.9v-.58l-.57-2.32,1.73-7.53a16.38,16.38,0,0,1,3.48-5.75v-.56l-2.89-6.94-.57-.59v-1.14c1.72-.58,2.88-.58,3.47.59v2.31l4.61,6.33,3.46,10.41h6.93l.58-.58c2.31-1.73,2.89-4,2.31-7.5h-1.73v-2.89l-3.46-5.77-.57-2.31-.57-2.35-2.89-2.89-1.16-8.08h-1.72l-.59-1.14v-1.75l-4.61,4.63,5.2,9.8,1.72,1.75v4c-2.31.59-2.88,0-2.31-.58l-2.3-5.77-5.2-8.08-2.9,1.18-.57,2.31,2.31,4-2.31-1.76-.57,1.17-1.15.58v8.64H736.1c0-6.31,0-9.8-.58-11l-2.31-1.72-3.47-1.73v-1.75l-4.61-2.91v-1.72l-2.31-.58-.57-3.49-2.9-2.9-1.15-5.77v-6.91c-.57-2.89-2.31-6.34-4.62-10.41l-1.73-.56v-1.17a.83.83,0,0,0,0-1.17l3.46.59v2.31l2.31,1.75,4-1.17,1.16,10.43,4.61,3.45,1.74,6.94,2.9,2.3,1.15,4.63h1.72l1.16,1.73h.57l2.89,4,4.62-2.33c1.74-1.14,2.31-2.89,2.31-5.17l-1.16-6.36-2.31-1.14V1294l-2.3-.58v-5.76c0-.56-.57-1.14-2.31-1.14l1.15-2.9-4.62-2.31,2.9-5.22v-2.89l1.73-.56v-7.52l1.16-1.14.57-1.18v-.58l1.15-9.23h1.73l1.15,1.16-1.72,8.08v.58l-.57,8.08,2.89,2.32-.58.59,1.15.58.57.58a5,5,0,0,0,3.48-1.75l1.15-1.15,1.16-4-.57-2.31-1.16-2.32-2.89-5.76-1.16-3.47-1.15-2.89-2.31-1.16-1.15-1.74.57-1.72.57-.58-.57-1.74-.57-1.16.57-5.19-1.74-.57-1.73,3.47c-1.15,0-1.73,0-1.15-.57h-.57l2.31-8.08-.62-2.38H737.8c0-.57-.57-1.15-1.73-1.15v-5.77h-.58l-.57-1.16-2.31.57-.57,7.51-2.31-.57a49.49,49.49,0,0,0,.57-7.51c-.57-2.32-2.31-2.89-5.2-2.32l-1.72,1.74-1.16,1.74h-3.46l.57-2.9c.57-.58,2.31-1.15,4-1.73l5.77-1.16,1.15-1.74c.57.59.57-.57,0-2.3-.57-.59-1.15-.59-2.31-1.16l-2.89-.58a11.33,11.33,0,0,0,0-8.67L713,1203.79l-7.51,4-2.3-.58-1.16-1.15V1205l6.93-1.74.57-1.16,8.66-3.46h4.62l4.05-1.15a27.64,27.64,0,0,1-3.47-11c-.58-4.61-.58-8.65.57-12.12l-4.61,1.15-.57,5.2h-2.9l-2.31-1.15-2.32-.57v-1.16l4.62-4h2.31l1.15-2.9,5.77-1.72c4.62-2.31,5.21-6.36,2.9-13.87l-1.73-1.72-1.15-1.74h-3.47l-.57,1.74-4,.57-1.73,2.31H713l2.31-5.77h2.89l4.05-2.89-2.31-2.9-6.34-1.73-8.66-5.78a20.41,20.41,0,0,0-10.41-2.89l-2.3,1.74v4.62h-2.34l-.57-4.62c-.58-1.15-1.74-1.74-4-1.74l-.58,1.74h-5.19l-1.15-1.14-.57-1.74-1.74-.57h-1.73l1.16-5.2,2.89-2.31v-2.89h-.57c-3.46,0-4.62,0-3.46.57l-5.2,2.89-1.73-.57-1.15-.58,11.57-5.19v-1.74h-6.35V1116l.58-1.73-3.47-1.72-5.77-.59-10.4,5.2v1.73l-1.74,1.15-1.15,2.31v9.23l1.15,7.51-3.46-.57-2.36,2.3Zm1.17,4.05,3.46-3.47c.57,0,1.15.57,1.15,1.73l3.48-.57,1.72-1.16,1.16,1.73,4.61,2.89,3.47,4,5.19-.57,1.16-4.62h2.31c0,5.19.57,8.08,2.31,9.82l2.89,2.31,1.74,5.2h1.15l4.62-8.67,3.46-1.15.58-1.73v-2.89l2.3-.57c1.16.57,1.16,2.31.57,5.19l-1.73,5.2-4.61-.57c-.57,2.89-2.31,6.35-4.61,11l-4.62-2.89c.57-.57,0-1.16-2.89-1.16l-.57,2.9-1.17,1.7-4-.57-4.62,6.35H661l-2.89-2.31-1.16-1.74,2.88-3.46,1.16-5.77-2.31,1.72-1.73,1.16c-1.15,2.31-1.73,3.46-1.15,4l-.57,2.3h-2.31l-1.72-2.89L650,1164l-4-3.46v-1.16h-1.74l-1.16-5.77c-.57-2.89-.57-4.62,0-6.36l1.16-1.15,1.74-1.15Zm21.94-24.26c0,.59-.57.59-1.74,0l-.57-1.15a3,3,0,0,1,2.31,1.15Zm17.31,26.56-.58-.57h-.57l.57-2.32C686.4,1144.32,686.4,1144.91,685.24,1147.21ZM661,1135.66c-.58-.57-.58-1.16,0-2.89,2.89-.57,3.46.57,1.73,2.89Zm-6.92-2.31,1.15-1.73c1.15,0,1.74.58,1.15,2.88l-1.15,3.48h-1.15l-1.74-2.31,1.74-2.32Zm49.07,24.84.59-2.9L713,1157l.57,4.62-5.19,1.74v-2.31l-5.2-2.89Zm-8.66,11,3.47.57c1.73,0,1.73.57.58,1.15l-2.31,2.31h-1.74Zm32.35,154.74,2.32,1.17v1.17L728,1332l-4,5.17c-2.31,1.14-2.31-.58-1.16-5.17l4-8.11Zm14.43,1.75-1.15.59-2.9,2.9v4.59l-3.46.59,1.16,2.32,1.15,1.17,1.15,6.89,1.16.6v2.31L736.06,1358l-2.89,2.89v3.48l-.57.59-.57.59-1.16-1.18.57-1.14-.57-2.34,2.31-6.91c1.16-6.34,0-12.7-3.46-19.64l6.35-5.77,1.73-3.48,2.31-2.3h.57v.58c0-.61.58,0,.58,2.28ZM706.62,1179l2.31.57-2.31,1.15V1179Zm.57,11.54,1.74.57,6.92-1.72.59-1.73c5.18-.58,4.61,1.73-1.16,6.93h-6.35l-.57-1.74-1.73.57-.58,1.15h-3.48l.57-2.3,2.31-2.31,1.74.58Zm-7.51-9.8,2.89.57,2.31-1.73.57,2.31-2.31.57-.57,1.73-.57,1.15h-2.31l-3.46-6.34Zm-11,.57.58-2.9-2.31-1.72-2.31-1.16v-2.3l2.31.57,1.73-2.31,2.89.58a19.16,19.16,0,0,0,1.15,12.7h2.31v2.31l-5.77,1.15-1.74,3.46-3.46.58v2.3l1.15.57,4.62,3.48,6.36,1.15,1.15,2.31-2.89,1.74h-2.31l-2.31,4.62c-.57,1.74,0,3.47.57,3.47h2.89l1.74-1.15,1.16-1.74,1.15-1.15c1.74,0,2.31.57,2.31,1.15.57.57,0,1.16-1.15,2.31l-5.21,2.89V1220l-1.15,1.15-.58,5.2-2.31.57L687,1224.6v-3.46l-2.89-5.77-3.47-15.59h-4l-3.47-16.17h1.73l.57,1.15.57,1.73,2.89,2.89,5.77-1.73a5.06,5.06,0,0,0,4-3.47v-2.89Zm-9.24-4.62,2.31,1.72-.57,2.33h-2.32l.58-4Zm-24.83-2.89c1.73,1.72,1.15,2.89-.57,2.89l-5.21-1.16.57-2.3Zm3.47,14.43v4l-1.15,2.31h-2.32l-1.73-2.31c-.57.57-1.15,0-.57-.57l-.57-2.31,2.88-2.89Zm7.5,2.31c0,.57,0,1.15-.57,1.15l-.57-2.3,1.14,1.15Zm-3.46,12.13c.57-.57.57,0,.57.57.58-.57.58-.57,0,1.15,0,1.16-.57,2.31-1.73,2.31C658.68,1208.42,658.68,1206.69,662.15,1202.65Zm-9.24,11,2.31-2.89c2.89-1.16,2.31,0-.58,5.2-1.73,0-2.31-.57-1.73-2.31Zm14.44-4.62v-2.31a37.44,37.44,0,0,0,4-9.23h2.31l-1.74,6.35-1.15,1.16v2.89l-5.2,7.51c-2.31-2.89-2.31-4-.57-3.46l2.31-2.91Zm-6.36,9.24-1.15,1.73c-1.73.58-2.31.58-2.31-.58l1.15-2.31C660.41,1216.51,661,1217.08,661,1218.24Zm26,20.2v-.57l.57-.57,2.9,2.31v3.46c-1.74,0-2.31,0-1.16-.57l-2.31-4.06Zm5.2-6.91,2.9,4v4l1.15.57,1.15,1.16V1246l5.21,2.89c-.58,0,0,.58,2.3,1.72,1.16-2.31.57-2.88-1.15-2.31l-.58-2.3v-2.31l1.73-1.16c-1.15-1.15-.58-1.15,1.16,0l1.15,5.77,12.7,16.19v2.31l-1.73.56-1.72-2.31-2.31-.56c-1.15,0-1.74,0-2.31-.58v-4.65h-.58l-4.61-5.18-5.77-2.31a20.23,20.23,0,0,1-5.2-3.48l-.57-2.89-.58-2.88-1.73-1.15v-3.47l-2.89-3.47v-2.88Zm2.3,22.5v-2.89h1.74l4,5.19v7.52c0,4-.57,5.77-1.72,6.33h-2.32v-3.42l1.73-.59a10.41,10.41,0,0,0-.58-9.24l-2.89-2.9Zm-45.62-50.81c-.57.58-.57,0-.57-1.73l1.16-2.89H650v2.31A2.93,2.93,0,0,1,648.86,1203.22Zm-5.77-.57,1.16.57,1.74,10.4h2.89v2.31l-4,.57-.57-1.16-1.15-1.72-1.73-11.56C641.94,1202.08,642.52,1202.65,643.09,1202.65Zm-7.51-.57v-1.73c.57,0,1.16,0,1.16.57a1.25,1.25,0,0,1-1.16,1.16Zm2.9-6.36v1.74h-2.31l.57-2.32c1.16,0,1.74,0,1.74.58Zm1.72,13.85v2.32l2.89,4v2.88l-3.46,2.31-2.89,2.89v1.16a2.13,2.13,0,0,1-.57,1.73h-2.88q6.06-7.77,5.19-20.79l1.72.57v2.88Zm68.73,58.33-2.89,2.32v2.33l-1.16.56-1.15,2.89c-.59,1.76-2.9,2.9-6.36,4.63l-1.15,1.15h-2.31l-.57-1.15,1.74-1.75,1.15-1.14h2.31c2.88-2.32,5.77-6.94,9.23-15h1.16v5.18ZM691,1288.68l-2.32,2.9c-3.47-.58-4.05-1.17-2.31-2.31l2.89-3.49c1.74.63,2.89,1.74,1.74,2.9Zm18.47,1.73,2.31-2.9,1.73.58-.57,8.08a20.25,20.25,0,0,1-1.15,7.52h-1.15l-4,4h-2.89l1.15-2.32,1.74-1.17,2.31-5.17Zm-40.43-15v1.73l2.89,1.73v4.62h-1.73l-1.16-2.89-2.89-6.36h2.31l.58,1.17Zm16.17,19.65-1.15,2.89-1.72,2.31c-1.74,0-2.31-1.17-1.16-2.89l3.46-3.49c1.15-.58,1.15,0,.57,1.18Zm-5.18,17.31c-.57.56-1.16,1.15-1.74.56l-.57-2.32c1.14.61,2.31.61,2.31,1.76Zm0,5.78c0,1.14-.57,1.14-1.74,1.14l-.57-2.89h1.74Zm-.59-11.56h-1.73l.57-4C680.63,1303.73,681.21,1305.42,679.47,1306.6Zm43.31,9.22v2.34l-2.89,2.88v8.66L717,1336h-1.72c0-4,0-6.34.57-6.34l1.15-1.14,1.16-.59v-9.23l1.72-3.45,2.91.53Zm-22.52.59c-1.15,5.17-1.72,8.08-2.31,9.24-2.3-1.75-2.89-2.31-2.3-2.31l1.72-6.94h2.89Zm-7.51,15-2.3-1.76v-2.89l2.89,1.17,1.74,1.16.57,2.91v2.89h.57l2.31,5.19,3.46,5.17,3.46,1.73c-.57-6.32,1.16-9.81,5.77-10.39l1.74.58c1.16.59,1.16.59.57.59l-1.15,1.14-.57,1.18-2.9,1.14a5,5,0,0,0-1.15,3.47l1.15,6.36-2.89-.58-2.89-.59-1.15-2.32h-2.31v-2.31l-6.36-5.77V1336l-.56-4.6Zm23.69,8.67,2.31,1.14-1.74,8.66c1.15.59,0,.59-1.73,1.17v-9.25c.57-.58,1.16-1.14,1.16-1.72Z" transform="translate(0 -997.3)"/>
  <path class="cls-2" d="M673.7,1154.72l-1.74.57v4.63l1.74,1.15,4-.57Zm143.78,104.51h-2.3c-6.36-4.6-11-6.91-15.59-6.34-2.31,0-3.48.59-4.05,1.16v1.16l-.58,1.73h1.15v2.89H793.8c-1.15-1.14-1.15-1.72,0-1.14v-1.75l-2.89-.58c-.57-.56-1.16,0-1.73,2.33l4.62,4h2.31l.58-1.16,1.74-1.15,1.16,1.73,2.89.58v1.77l6.92,1.72,2.9,2.91c2.89,0,4.61-.59,5.18-2.91v-7Zm-14.43-4.61,1.15,1.16,4.62,3.45,2.31,1.17h.57l1.15,1.16h.57l.58,2.33h-1.16l-.57-.58-1.15-.59-4.62-2.9h-4.62l-1.72-2.31v-2.89Zm-52.54-4-1.74,1.17,2.31,1.74c1.74,2.32,2.31,6.34,2.89,11.54v2.89a50.69,50.69,0,0,1-1.15,9.83l2.89-1.16c.57,0,1.74-.59,1.74-1.15.57-.58,1.15-2.89.57-6.94l-.59-8.08-1.73-1.18-1.16-3.45-4-5.21Z" transform="translate(0 -997.3)"/>
  <path class="cls-2" d="M756.28,1250.57v2.91l3.46,6.92a14,14,0,0,1,2.31,7.5,16.2,16.2,0,0,1-2.31,8.66l-5.2,4.63,1.16,3.45,1.73,2.91-.58,1.75v2.31l1.74,1.72-1.16,4-2.89,2.3v4.61l2.31.58,1.74,5.76,2.89,2.32v2.89l1.16.59,1.73,5.77h2.9l2.3-14.44,1.74-.58c0,6.94,0,11.56-1.15,13.85l-.59,2.89-2.89,2.34v2.31h2.89v-1.75c1.74,0,2.31,1.16,1.74,2.89l-.58,6.94c.58,1.17,2.89,3.49,6.94,6.35v1.73c-.57-.59-1.16-.59-.57.58l-.59.59.59,1.73h1.15l2.31,4.59c1.17,3.48.58,11-.57,21.38l-1.74.58-.57,8.08c0,3.48,0,6.36.57,8.08a2.56,2.56,0,0,0,2.31,1.73l3.48,1.17v2.89l-5.78,2.32v11a52.15,52.15,0,0,1-1.15,10.43l-2.89,3.45a9.75,9.75,0,0,0,.57,6.94l1.15,5.17-.58,2.32-.57,1.17.57,5.18h2.31l.57,1.73h3.47l2.31-2.32-3.47-5.17v-2.91l.58-1.14v-1.75l.58-6.35,1.73-.56v-13.28l1.72-1.16v-7.51l1.16-.55,1.74-14.44,3.47-3.49v-4.59l-5.2,1.14v-2.89l-2.88-4V1361.5H784l1.16-.6.58.6.57,1.17c0,5.17,0,8.66.58,11l2.31,1.17q2.6-5.22,3.47-15.6l1.72-17.33,1.73-.59v-6.35l2.89-3.48,3.46-13.85V1317l-.58-1.17,2.89-4c1.15-4.61.58-9.83-.57-16.18-1.73-5.73-2.88-9.81-4.62-12.7l-6.35-7.5L792.1,1272l-6.92-5.19v-2.31l5.2.56v-4.61l-2.89-1.18H784a1.25,1.25,0,0,1-1.15,1.18v1.73h-2.35q-4.32-5.19-6.93-6.91L762,1252.91l-5.76-2.34Zm15,50.26a3.77,3.77,0,0,1-1.16,2.9l-2.31-3.49.57-11.56,2.9.59,1.15,5.18,5.77,5.77-.57,2.31c1.16,0,1.16.58,0,2.31-2.31,0-2.89-.59-2.31-.59h-.57l-2.31-5.73-1.16,2.31Zm6.35,11q.86,1.73-1.72,0l-.59-5.18h1.16l.58-1.17,1.15,1.17-.58,5.18Zm-2.31,1.69a1.24,1.24,0,0,1,1.16,1.18l.58,2.89h-2.89c0-1.75,0-2.31.57-2.31l.58-1.76Zm8.67,27.73c4,0,3.46,1.75-1.16,5.17H780c.57-.55,0-1.14-1.15-1.14l1.15-2.89h3.46l.59-1.14Zm-38.71-62.9V1276l-2.87-1.73-.58,2.31-.58,4,1.74.58.57,3.45.57,2.88,2.89,1.75,1.16,3.48.58,4,1.15-.59h.59v-4.59l-1.74-6.35-2.31-6.36Zm-20.77,19,7.51,6.9h2.88v-2.89l-2.88-1.72-1.16-.59-2.89-5.77-6.36-9.81c-.57,0-1.15,1.15-1.15,2.31,0,1.73.57,2.31,1.15,1.73v4l2.9,2.89v2.9Zm28.87-13.85h-1.73c-.58-.58-1.15,1.14,0,4.59l1.73,6.94c.57,0,1.15-1.17.57-4Z" transform="translate(0 -997.3)"/>
  <path class="cls-2" d="M754.54,1339.5l-1.15,1.73,2.31,13.84,1.15.58-.57,2.91,1.15,2.89,1.16,2.9,3.46,1.17,4.62-5.77v-2.89l1.74-1.17,2.31-7.5a6.06,6.06,0,0,0-.58-4.6l-1.73-3.48-.57-7.52h-1.16l-3.46,2.89.57-.55,2.89,4.6-1.15,2.31-4.62-4h-4.62c-.59.51-1.16,1.1-1.75,1.69ZM747,1328a57.64,57.64,0,0,0-2.89,9.25c-.57,0-1.15,0-1.15.59v1.72h4c-.57-2.89.59-5.77,2.31-8.66Zm-84.88-39.88-1.16-3.47-1.15,1.16v3.49l-1.73,1.14a17.14,17.14,0,0,0,1.16,4.62l1.15,4.61-3.46,5.18c-.59,1.17,0,4,1.15,8.08.57,3.48,1.73,5.76,2.31,5.76.58.59.58.59,0,.59l-.57,1.18,2.31,2.3,1.15,6.92,4.05,4.61V1336l.57,1.76,2.89,1.73v2.31h-.58l-2.31-.59h-.57l-2.31-4v8.08l-1.72,1.14-1.16,6.94L661,1363.72l-1.16,1.75-1.72,11-4,7.5c-.57.58,0,1.75.57,3.48l-.57,11,1.16.58-.59,8.08,8.67,1.76,2.88-8.67V1388c-1.16,0-1.16-1.17,0-3.48l.58-2.31.57-2.3,1.72-.59v-1.74l6.93-5.2,2.31-3.46h2.31l8.08-8.11,1.15-5.17,1.73-1.14,1.15-1.77v-2.3l-2.31.58-.57,2.9-2.31,1.15-2.31.58v-2.31l2.31-1.74c1.74-1.16,1.74-2.89,1.16-5.2l-5.19-4.6-1.15-4.61-5.78-6.35v-2.89l-3.46-5.78-3.46.6a3.35,3.35,0,0,1-2.31-.6l-1.74-2.89-.57-3.47-4.62-2.9-.57-3.46,2.9.56,1.73-2.31c-1.15,0-1.73,0-1.73-.58v-1.74l3.46,1.74c1.15,3.47,1.74,6.34,2.31,7.52l1.72,1.72c1.17.59,1.17.59,1.17-.58v-4l-1.17-1.16-1.72-10.39-1.16-.59-5.22-11.49Zm12.71,43.33c-2.31,0-3.47-.59-1.73-1.76l-1.15-1.14v-2.31l2.89,1.73v3.48Zm4,25.41-.57-4.63h2.89l.57,5.77-2.31,2.34h-1.15V1358c0,1.17,0,.59.57-1.14Zm-19,22.54,3.47,2.31v2.89l-4.61-1.72,1.14-3.48Zm1.15,13.26,2.31,1.75a11.93,11.93,0,0,1,0,6.33l-2.31,4-2.89-.59A22.61,22.61,0,0,0,661,1392.63Zm-6.35,19.65,1.15,1.75,2.31,11c.57,3.48,1.15,5.19,2.31,5.77v.56l-.57,1.17,1.15,1.16,1.16,12.12,5.77-1.73c2.31,5.77,4.61,8.67,6.92,9.25h4.62l1.15,3.48h1.16l1.74,2.32,2.31.58,3.47.56c1.16-4.59,1.16-8.08.57-10.39l-1.15-.58c1.15-.6.58-1.16-.57-1.16-2.32,0-2.32,0-1.16.56l-2.31,1.18-1.15,2.31c.57,0,0,.58-2.89,1.17l.58-1.75,1.16-2.31,2.3-.6v-3.45l-.57-2.33h-2.88v.58l-4.61,2.31-2.31-4-2.88-2.3-.58-4.63-3.47-1.73v-2.31l-1.74-1.76-1.15-15-9.23-2.91c-.61,0-.61.56-.61,1.16Zm67,50.26v2.3l5.78,2.31v2.31l-7.51-1.72.58,1.72-1.15.59-.57,8.66,13.28-8.66a62.33,62.33,0,0,0-2.31-11l5.19-4.63c.57-1.14.57-3.45,0-5.77v-5.76l1.15-1.14-.58-2.32,1.73-.58.58-3.48-5.78-4.6-4.61,13.26h-1.16l-1.15,5.19h-.57l.57,3.48,1.15,1.72a7.06,7.06,0,0,1-1.74,5.22l-2.88,2.88ZM746.46,1414l-2.32,1.14v4.07l2.89,1.14v2.87l2.31,1.18.58-6.35Zm-4,7.54v1.16l.57,3.45v1.17l-2.9,7.5,4-1.15,1.15-1.75,1.74-1.72v-1.74l-.57-2.33-1.15-.56-.57-1.17v-1.74c0-.58-.57-1.16-1.73-1.16h-.59v0Zm39.27,30v-4l-6.94-1.17c-1.73,4.63-1.73,6.94-.57,7.52.57.6,3.46,0,7.51-2.31Zm325.68-211.34h-6.94l-50.23,138.61h-8.66v2.89h28.3v-2.89h-16.18l19.06-55.42h44.46l19.63,55.42H1116v2.89h52v-2.89h-11Zm-12.13,23.09L1116,1321h-41.59l20.79-57.73ZM873.5,1199.76h13.87v177.86H873.5v4.05h62.37v-4.05h-20.2v-87.78h1.72l72.76,91.8h38.69v-4h-11l-68.73-88.35q67.56-1.76,67.56-48.52c0-30-24.84-45-75.65-45l-67.56.57v3.51Zm95.28,6.93c10.39,6.36,15,17.33,15,34.08,0,14.44-4,26-12.14,34.07-7.51,7.49-18.47,11-32.34,11H915.65v-86H932.4c16.74,0,29.45,2.31,36.38,6.92ZM1444,1240.77v2.3h15v135.72h-15v2.87h49.65v-2.87H1478.1v-68.16H1541v68.16h-13.84v2.87h47.91v-2.87h-15V1243.07h15v-2.3h-47.91v2.3H1541v64.67H1478.1v-64.67h15.58v-2.3Zm-74.49-.59-54.86.57v2.89h12.13v134h-12.13v2.9h51.41v-2.9h-16.74v-63h17.3c42.74,0,64.1-12.71,64.1-37.56,0-12.14-4.62-20.8-12.7-26.58C1407.63,1243.64,1392,1240.18,1369.54,1240.18Zm-20.2,3.46,13.25-.57c15.58,0,26,2.31,31.76,7.5,6.33,4.63,9.81,13.88,9.81,26.58,0,23.09-12.14,34.66-35.8,34.66h-19l0-68.17Zm-113.78-2.87h-54.27v2.3h14.43v135.72h-14.43v2.89h109.14v-43.87h-2.31c-5.77,27.13-19.64,41-39.84,41H1214.2V1243.07h21.36v-2.3Z" transform="translate(0 -997.3)"/>
</svg>
