<svg id="Layer_1" data-name="Layer 1" xmlns="http://www.w3.org/2000/svg" width="200" height="40.65" viewBox="0 0 200 40.65">
  <defs>
    <style>
      .cls-1 {
        fill: none;
      }

      .cls-2 {
        fill: #fff;
      }
    </style>
  </defs>
  <path class="cls-1" d="M0,0H200V40.65H0Z" transform="translate(0 0)"/>
  <path class="cls-2" d="M161.44,19.66h1.48v7.41a5.21,5.21,0,0,1-.19,1.62,2.13,2.13,0,0,1-.46.88,3,3,0,0,1-2.58,1.2,2.17,2.17,0,0,1-1.85-.74,4.5,4.5,0,0,1-.65-2.68V19.68h1.2V19.5H154.6v.18h1.07v7.49c0,2.54,1.24,3.83,3.74,3.83a3.67,3.67,0,0,0,3.05-1.29,4,4,0,0,0,.69-2.36V19.68h1V19.5h-2.73v.18Zm-12-.23h-.55l-4,11.09h-.7v.23h2.27v-.23h-1.34l1.65-4.45h3.46l1.62,4.43h-1.66v.23h4.16V30.5h-.88l-4-11.09Zm-1,1.85,1.71,4.62h-3.33Zm-6.14,4.9h-.19c-.64,2.81-1.94,4.25-3.92,4.25h-3.37V16.2h2.08v-.28h-5.32v.28H133V30.43h-1.39v.32H142.3Zm40.84-6.52a2.4,2.4,0,0,1,1.8.65,4.86,4.86,0,0,1,1,1.89h.14V19.48h-8.64v.18h1.11V30.52h-1.11v.23h8.68V27.24h-.18a4.6,4.6,0,0,1-.69,2,2.74,2.74,0,0,1-2.32,1.29h-2.86V24.8h1.2a1.46,1.46,0,0,1,1.43.74,5.47,5.47,0,0,1,.56,1.62h.18v-4.9h-.18a3.93,3.93,0,0,1-.79,1.85,1.75,1.75,0,0,1-1.43.46h-1v-4.9Zm-17.28,0h.91V30.47h-.88v.24H170v-.24h-1.3v-5.4h.11l4.67,5.59H176v-.23h-.69l-4.52-5.36c2.91-.1,4.38-1.11,4.38-3s-1.66-2.72-4.89-2.72l-4.39,0Zm3.83,0a5.15,5.15,0,0,1,2.36.41,2.23,2.23,0,0,1,1,2.08c0,1.85-1,2.77-2.91,2.78h-1.48V19.7Zm26.24,0H197v-.18h-2.45v.18h1.18v8.41l-5.13-8.59H188v.18h1.11V30.52H188v.23h2.76v-.23h-1.53V20.31h0l6.38,10.63h.27Zm-181,.14a3.26,3.26,0,0,0-1.29-2.86,8.32,8.32,0,0,0-4.76-1.07h-6v.28H4.65V30.38H2.94v.32H9v-.32H6.91v-6.7H8.62c4.25,0,6.38-1.29,6.38-3.93Zm-3.6-2.86a4.51,4.51,0,0,1,0,5.58,3.61,3.61,0,0,1-2.64.93H6.92V16.19H8.26a5,5,0,0,1,3.14.75ZM20,19.2a4.52,4.52,0,0,0-3.37,1.66,6.15,6.15,0,0,0-1.55,4.21,6.32,6.32,0,0,0,1.44,4.11A4.41,4.41,0,0,0,20.08,31a4.5,4.5,0,0,0,3.51-1.85,6.5,6.5,0,0,0-.09-8.27,4.53,4.53,0,0,0-3.42-1.66Zm-2.72,1.94a3,3,0,0,1,4-1.39,2.93,2.93,0,0,1,1.39,1.39,12.34,12.34,0,0,1-.09,8.18A2.71,2.71,0,0,1,20,30.75a2.66,2.66,0,0,1-2.58-1.43,9,9,0,0,1-.66-4.25,9.92,9.92,0,0,1,.59-3.93Zm26.93-.28a4.3,4.3,0,0,0-6.79,0,6.12,6.12,0,0,0-1.5,4.21,6.44,6.44,0,0,0,1.38,4.11A4.39,4.39,0,0,0,40.87,31a4.45,4.45,0,0,0,3.51-1.85,6.54,6.54,0,0,0-.09-8.27Zm-6.68,4.21a9,9,0,0,1,.65-3.93,2.93,2.93,0,0,1,5.36,0,12.34,12.34,0,0,1-.09,8.18,2.71,2.71,0,0,1-2.59,1.43,2.66,2.66,0,0,1-2.58-1.43A8.74,8.74,0,0,1,37.54,25.07Zm-3,2.17h-.18c-.46,2.17-1.48,3.28-3.09,3.28h-2.5V19.66h1.39v-.18h-3.6v.18h.74V30.52h-.74v.23h8.08V27.24ZM57.64,6.13l-.32.09-.6.65L54.41,8.81,54,9.22l.09.14h.28l.09-.14h.14l.23-.32h.14l.14-.23.51-.32.92-.92.37-.19.37-.46.28-.14.27-.37H58L58.11,6l.55-.41.28-.32.09,0h.09V5.07h.1V4.88l.37-.19V4.51a2.3,2.3,0,0,1,.69-.7l.18-.23a.48.48,0,0,1,.51.28l.32.46h.23l.1-.14-1.2-2.26h-.15L60,2.06v.28l.19.13a.83.83,0,0,1,0,.93H60.1v.09l-.24.18V4h-.19v.12l-.6.42v.19H59v.14l-.42.36-.23.28h-.18l-.23.32a3.71,3.71,0,0,0-.23.32Zm-6.1,5.36A1.57,1.57,0,0,0,51,12v.37l.13.41L51,13l-.19-.09,0-.51-.09-.14c-.14,0-.19.1-.14.14v.19l-.09.23v.32a.57.57,0,0,0,.28.42l.42.23v.18l.46-.18v.32l-.73.6a1.51,1.51,0,0,0-.47.83v.6l-.41.32v.1h-.19v.18l-.46.42v.32L49.3,18l.09.05.74-.37v.09s0,.09-.09.14l-.42.09v.15l.33.27h.18v-.18h.18v.18l-.09.14h.37l.09.19h.47l.27.74.1.79.36.69.1.74.18.14.19.83h.13c.1-.28.14-.46.1-.51h-.1l-.09-.51-.23-.28-.09-.65-.19-.18-.11-1.06-.09-.1v-.31h-.14l-.09-.92.28-.32v0a.36.36,0,0,1,.51,0,.38.38,0,0,1,.09.15l.13.74a.06.06,0,0,1,0,.08h0v.14l.14.09v.28l.09.14.14.92.23.51v.24l.28.28.14.28h-.19L53,21.22h-.24l-.14.83v.05h0l.09,0,.19.65.18.09.28.88.19.18.09.65.14.09v.88l.09.05v.23l.37.32.32.88.32.28.55.83.23.18h.24l.37.24h.32l.13.19H57l.09-.37h.1l.13.18.1,1.16a6,6,0,0,1,0,1.2h-.1v.24l-.23.73h.09a1.38,1.38,0,0,0,.42,1s0,.09,0,.14,0,.14-.19.23l.51.41v.19l.18.18.28.14.14.32.32,0,.23-.37a.82.82,0,0,0-.32-.51l-.27-.23H58.3v.18h-.18c.23-.28.23-.51.14-.6l-.14-.1.09-.27c.09-.19.14-.28.09-.42l-.23-.32v-1h.14v-.32l.09-.05v-.41l.19-.24.18.05v.14a.16.16,0,0,0,.14-.05l0-.09h0a5,5,0,0,1,.37,1v.6l.18.19a.75.75,0,0,1,0,.55l-.14.14-.14.05v-.7l-.19-.09v-.46l-.09,0v-.12l-.27-.28v-.37l-.19-.14-.14.42-.18.09v.05c.09,0,.09.14.14.28v.36l.1.05.23.55.13,1.57h.24l.09-.09v-.14l.23-.18a3.46,3.46,0,0,0,.19-.7,2.24,2.24,0,0,0,0-.73L59.18,31v-.37L59,30.24v-.31l-.19-.79h-.18v.32l-.09.23-.19,0,.1-.65h.13v-.28l.14,0L59,28l-.14-.55v-.23l.13-.6a1.21,1.21,0,0,1,.28-.46v-.11L59,25.52v-.14c.13-.05.23-.05.27,0v.19l.37.51.28.83h.55a.55.55,0,0,0,.18-.6h-.13v-.24l-.28-.46v-.37L60,25l-.1-.65h-.13v-.23l-.37.37.42.78.13.14v.32c-.18.05-.23,0-.18,0l-.18-.47-.42-.64-.23.09v.19l.19.32-.19-.14v.09l-.1.05v.69h-.17a3.24,3.24,0,0,0,0-.88l-.18-.14-.28-.14v-.14l-.37-.23v-.14l-.18-.05,0-.27-.23-.24-.09-.46v-.55a3.24,3.24,0,0,0-.37-.83l-.14-.05v-.09a.07.07,0,0,0,0-.1h0l.28.05v.19l.18.14.32-.1.09.84L58,23l.14.56.23.18.1.37h.28l.1.14h0l.23.32.37-.19a.44.44,0,0,0,.19-.41l-.09-.51-.19-.09v.39l-.18-.05v-.46a.21.21,0,0,0-.19-.09l.09-.23-.37-.19.24-.42v-.25h.13v-.6l.1-.09v-.15l.09-.73h.14l.1.09-.14.65h0v.65l.23.18v.05l.09.05h0A.35.35,0,0,0,60,22l.09-.09.1-.32,0-.18L60,21.25l-.23-.46-.09-.28-.1-.23-.18-.09-.09-.14v-.14h0v-.65l-.14-.05-.14.28H59l.18-.65v-.19H59s0-.09-.14-.09v-.49h0V18L58.7,18v.6h-.19a3,3,0,0,0,0-.6c0-.18-.19-.23-.42-.18L58,18l-.18.08h-.28l0-.23a1.3,1.3,0,0,1,.32-.14l.46-.09.09-.14c.05.05.05,0,0-.18s-.09,0-.18-.09L58,17.15a.92.92,0,0,0,0-.69l-1,.08-.6.32-.18-.05-.1-.09v-.08l.56-.14v-.09l.7-.28h.37l.32-.09a2.27,2.27,0,0,1-.28-.88,2.41,2.41,0,0,1,0-1l-.37.09-.05.41h-.1l-.18-.09H56.9v-.1l.37-.32h.19l.09-.23.46-.14c.37-.18.42-.5.23-1.1l-.14-.14L58,12.4h-.24v.14h-.32l-.14.19h-.19l.19-.46h.23l.23-.2-.18-.24-.51-.14-.69-.46a1.63,1.63,0,0,0-.84-.23l-.18.14v.37h-.19v-.37c0-.09-.14-.14-.32-.14l0,.14h-.44l-.1-.09v-.14H54l.09-.41.23-.19v-.23h0c-.28,0-.37,0-.28.05l-.41.23-.14,0h-.09l.92-.42V9.75h-.54V9.47l-.28-.14L53,9.28l-.83.42v.14l-.14.09-.09.19v.73l.09.6h-.28l-.19.18Zm.1.32.27-.28s.1,0,.1.14h.28l.13-.1.1.14.36.23.28.32h.42l.09-.37h.18a1.09,1.09,0,0,0,.19.78l.23.19.14.41h.09l.37-.69.28-.09v-.42l.19-.05q.13.08,0,.42l-.13.41h-.37a4.55,4.55,0,0,1-.37.88l-.37-.23c0-.05,0-.09-.23-.09v.23l-.09.13h-.32l-.37.51h-.28l-.23-.19L52.49,14l.23-.28.09-.46-.18.14-.14.09c-.09.19-.14.28-.09.32l0,.19h-.18L52,13.72l-.1-.27-.32-.28v-.09h-.14l-.09-.46a.89.89,0,0,1,0-.51l.09-.09.14-.1Zm1.75-1.94h-.14V9.78a.21.21,0,0,1,.18.09ZM54.78,12V12h0v-.19c.14,0,.14.05,0,.23Zm-1.9-.93v-.23c.23-.05.28,0,.14.23Zm-.55-.18.09-.14c.09,0,.14,0,.09.23l-.09.28h-.09l-.14-.19Zm3.92,2,0-.23.74.14v.37l-.42.14v-.24l-.41-.23Zm-.69.88h.28c.14,0,.14,0,0,.09l-.19.18h-.14Zm2.59,12.38.18.1v.09l-.09.46-.32.41c-.18.09-.18-.05-.09-.41Zm1.15.14-.09.05-.23.23v.37H58.7l.1.18.09.09.09.56h.09v.3l-.18.83-.23.23v.28h0l0,.05-.09-.09v-.28l.19-.55A2.42,2.42,0,0,0,58.43,27l.51-.46.14-.28.18-.18h.05v.25ZM56.53,14.56h.19l-.19.09Zm0,.92.14,0,.55-.14v-.14c.41,0,.37.14-.1.55h-.4l-.05-.13h-.14v.09H56.3v-.18l.19-.19ZM56,14.7h.23l.18-.14,0,.19h-.19V15h-.18l-.28-.5Zm-.88,0v-.23l-.18-.14-.19-.09v-.17h.19l.14-.18h.23a1.5,1.5,0,0,0,.09,1h.18v.18l-.46.1-.14.27-.27.05v.18h.09l.37.28.51.09.09.18-.23.14h-.15l-.18.37a.46.46,0,0,0,0,.28h.24l.13-.09.1-.14.09-.09c.14,0,.18,0,.18.09s0,.09-.09.18l-.41.23v.47l-.1.09v.42h-.19L55,18v-.28l-.23-.46L54.45,16h-.32l-.27-1.29H54l0,.09v.14l.23.23.46-.14a.43.43,0,0,0,.32-.28v-.23Zm-.74-.37.18.14v.19h-.19l0-.32Zm-2-.23c.14.14.09.23,0,.23l-.42-.09v-.18Zm.28,1.16v.32l-.09.18h-.18l-.14-.18s-.09,0,0-.05l0-.18.23-.24Zm.6.18v0Zm-.28,1h0v.09c0,.09,0,.18-.14.18s-.18,0,.09-.32Zm-.74.88.19-.23c.23-.09.18,0,0,.42-.18,0-.22-.06-.18-.2ZM53.38,17v-.18A3.25,3.25,0,0,0,53.7,16h.18l-.14.51-.09.09v.23l-.41.6c-.19-.23-.19-.32,0-.28l.18-.23Zm-.51.74-.09.14c-.14.05-.19.05-.19,0l.09-.18C52.82,17.55,52.87,17.6,52.87,17.69ZM55,19.31h0l.24.18v.28h-.1Zm.41-.56.24.32v.32l.09.05.09.09v.38l.42.23.18.14c.09-.19,0-.23-.09-.19l0-.18v-.19l.14-.09c-.09-.09,0-.09.09,0l.1.46,1,1.3v.18l-.14.05-.13-.19h-.19c-.09,0-.14,0-.18-.05V21h0l-.37-.42-.46-.18a1.92,1.92,0,0,1-.42-.28V19.9l0-.23-.14-.09V19.3L55.26,19v-.23Zm.19,1.8v-.23h.14l.32.42v.6c0,.32,0,.46-.14.51h-.19v-.28l.14-.05a.85.85,0,0,0,0-.73l-.23-.24ZM51.9,16.49v-.14l.1-.23h0v.18a.21.21,0,0,1-.09.18Zm-.46,0h.09l.14.83h.23v.19h-.32v-.09l-.1-.14-.14-.92h.14Zm-.6,0v-.14h.09a.12.12,0,0,1-.08,0Zm.23-.51v.09h-.19l0-.19q.15-.08.15,0Zm.14,1.11v.18l.23.32v.23l-.28.19-.23.23v.09a.16.16,0,0,1,0,.14h-.23a2.29,2.29,0,0,0,.42-1.66h.14v.28Zm5.49,4.66-.23.19v.13h-.09l-.09.23c0,.14-.23.23-.51.37l-.09.09H55.5v-.09l.14-.14.09-.09h.18a3.06,3.06,0,0,0,.74-1.2h.09v.41Zm-1.43,1.66-.18.23c-.28,0-.33-.09-.19-.18l.23-.28c.15-.05.24,0,.15.13Zm1.48.14.18-.23h.14V24a2,2,0,0,1-.09.6h-.1l-.32.32h-.23l.09-.18.14-.1.19-.41Zm-3.23-1.2v.14l.23.14V23h-.14l-.09-.23-.24-.51h.19Zm1.29,1.57,0,.15-.14.19c-.14,0-.19-.1-.09-.23l.27-.28c.06-.07.06,0,0,.07Zm-.42,1.39s-.09.09-.13,0v-.18c.05,0,.14,0,.14.08Zm0,.46c0,.09,0,.09-.13.09v-.23h.14Zm0-.93h-.14v-.32c.19.1.24.23.1.33Zm3.46.74v.19l-.23.23v.69l-.23.51h-.14v-.51l.09-.09.09-.05v-.74l.14-.27h.24Zm-1.8,0c0,.25-.11.5-.18.74-.19-.14-.24-.19-.19-.19l.14-.55Zm-.6,1.2-.18-.14v-.23l.23.09.14.09v.47h0l.18.41.28.42.28.14c-.05-.51.09-.79.46-.84l.14,0c.09.05.09.05,0,.05l-.09.09v.09l-.23.09a.41.41,0,0,0-.09.28l.09.51-.23-.05H56.2l-.09-.19H56v-.18l-.51-.46v-.69Zm1.89.69.19.09-.14.7c.09,0,0,0-.14.09v-.74c0-.1.06-.14.06-.19Z" transform="translate(0 0)"/>
  <path class="cls-2" d="M53.9,12.59h-.14V13l.14.09h.32ZM65.4,21h-.18A1.82,1.82,0,0,0,64,20.45a.46.46,0,0,0-.32.09v.23h.09V21h-.18c-.1-.09-.1-.13,0-.09v-.14h-.24c0-.05-.09,0-.13.18l.37.32h.18v-.09l.14-.09.09.14h.23v.14l.55.14.24.23c.23,0,.36,0,.41-.23V21Zm-1.15-.37.09.09.37.28.18.09h0l.09.09h0v.19h-.09l0,0h-.09L64.38,21H64l-.14-.18v-.23ZM60,20.27l-.14.09.19.14a2.12,2.12,0,0,1,.23.92v.23a5.16,5.16,0,0,1-.09.79l.23-.09s.14,0,.14-.09a.89.89,0,0,0,0-.56v-.65L60.46,21l-.09-.28-.32-.41Z" transform="translate(0 0)"/>
  <path class="cls-2" d="M60.5,20.26v.24l.27.57a1.18,1.18,0,0,1,.19.6,1.31,1.31,0,0,1-.19.69l-.41.37.09.28.14.23v.33l.14.13-.09.32-.23.19v.37h.18l.14.46.23.19v.23h.09l.14.46h.23l.19-1.16h.14a3,3,0,0,1-.1,1.11v.23l-.23.18v.19h.23v-.14c.14,0,.18.09.14.23v.56a2.06,2.06,0,0,0,.56.5v.14c0-.05-.1-.05,0,0l-.05,0,.05.13h.09l.19.37A5.76,5.76,0,0,1,62.58,30l-.14.05v.64a3.53,3.53,0,0,0,0,.65.2.2,0,0,0,.19.14l.28.09v.23l-.47.19v.88a3.84,3.84,0,0,1-.09.83l-.23.28a.75.75,0,0,0,0,.55l.09.42v.69h.19v.14h.28l.18-.19-.27-.41v-.87l.14,0V33.22l0-.15v-.6l.1,0L63,31.27l.27-.28v-.37l-.41.09v-.23l-.23-.32V29.1h0l.13,0v.14a4.31,4.31,0,0,0,0,.88l.19.09a3.5,3.5,0,0,0,.28-1.24l.13-1.39.14-.05v-.43l.23-.28L64,25.68v-.05l0-.1.23-.32a3.12,3.12,0,0,0,0-1.29,5,5,0,0,0-.37-1l-.51-.6-.09-.27-.55-.42v-.18h.41v-.38L62.86,21h-.09a.09.09,0,0,1-.09.09v.14h-.19a2.87,2.87,0,0,0-.55-.55L61,20.47l-.46-.19Zm1.2,4a.3.3,0,0,1-.09.24l-.18-.28v-.93l.23.05.1.41.46.46v.19c.1,0,.1,0,0,.18s-.23,0-.18,0h0l-.22-.51-.1.18Zm.51.88c0,.1,0,.1-.14,0v-.41h.09l.05-.09.09.09Zm-.18.14a.09.09,0,0,1,.09.09l.05.23h-.23v-.18Zm.69,2.22c.32,0,.28.14-.09.41H62.4c.05,0,0-.09-.09-.09l.09-.23h.28V27.5Zm-3.1-5v-.19l-.23-.14v.5l.14,0v.51l.23.14.1.27V24H60v-.37l-.14-.51-.18-.51ZM58,24l.6.55h.21v-.23l-.23-.14-.09-.05-.23-.46-.51-.79a.36.36,0,0,0-.09.19c0,.09,0,.18.09.14v.32l.23.23V24Zm2.31-1.11h-.14c0-.05-.09.09,0,.36l.14.56s.09-.09,0-.32Z" transform="translate(0 0)"/>
  <path class="cls-2" d="M60.37,27.38l-.1.14.19,1.1.09.05,0,.23.1.23.09.24.28.09.37-.46v-.23l.13-.1.19-.6a.48.48,0,0,0,0-.37l-.14-.27v-.61h-.09l-.28.24v0l.23.37-.1.18-.37-.32h-.36l-.14.14Zm-.61-.92a4.87,4.87,0,0,0-.23.74h-.09v.14h.33a1,1,0,0,1,.18-.69ZM53,23.27,52.88,23l-.11.08v.28l-.14.09a1.18,1.18,0,0,0,.09.37l.09.37-.27.42a1.17,1.17,0,0,0,.09.64.54.54,0,0,0,.18.46s0,.05,0,.05v.09L53,26l.09.55.33.37v.26l.24.14v.18h0l-.19-.05h0l-.19-.32v.65l-.13.09-.1.56-.09.82-.09.14-.14.88-.32.6v1.16l.09,0v.65l.69.14.23-.7v-1c-.09,0-.09-.1,0-.28v-.37l.14-.05v-.14l.56-.41.18-.28h.18l.65-.65.09-.41.14-.09.09-.14v-.19l-.18,0v.23l-.18.09-.19.05v-.19l.19-.14c.14-.09.14-.23.09-.41l-.41-.37-.1-.37-.46-.51v-.23l-.28-.46-.27.05a.25.25,0,0,1-.19-.05l-.14-.23v-.28L53,25.19v-.28l.24.05.13-.19h-.13v-.14l.27.14c.09.27.14.5.19.6l.13.14h.1v-.32l-.1-.09-.13-.84h-.1l-.41-.92Zm1,3.46c-.19,0-.28,0-.14-.14l-.09-.09v-.18l.23.13Zm.32,2v-.37h.23l0,.46-.19.18h-.09v-.18c0,.13,0,.08,0-.05Zm-1.52,1.84.28.18V31l-.37-.14Zm.09,1.06.19.14a1.1,1.1,0,0,1,0,.51l-.19.32h-.23a1.75,1.75,0,0,0,.23-.92Zm-.51,1.57.09.14.19.88c0,.28.09.42.18.46v.14l.09.1.09,1,.46-.13c.19.46.37.69.56.74h.37l.09.27h.09l.14.19.19,0h.27a1.67,1.67,0,0,0,.05-.83l-.09-.05c.09,0,0-.09,0-.09s-.18,0-.09,0l-.19.09-.09.19s0,0-.23.09v-.14l.09-.19h.18v-.47h-.23v.05l-.37.18L54,35.6l-.24-.18v-.37l-.28-.14v-.18l-.14-.14-.09-1.2-.74-.24v.1Zm5.36,4v.19l.46.18v.19l-.6-.14v.14h-.09l0,.7,1.07-.7a5.31,5.31,0,0,0-.19-.88l.42-.37a.9.9,0,0,0,0-.46v-.46l.09-.09v-.19H59V35l-.47-.37-.37,1.06H58l-.09.42h0l0,.28.09.13a.6.6,0,0,1-.14.42l-.23.23Zm2-3.88-.19.09v.32l.23.1v.24l.19.1v-.51Zm-.32.6v.52l-.23.6.32-.09.09-.14.14-.14v-.32l-.09-.05v-.23a.18.18,0,0,0-.14-.09h0Zm3.14,2.4v-.25L62,36c-.14.37-.14.55,0,.6s.28,0,.6-.19ZM88.58,19.41H88L84,30.5h-.69v.23H85.6V30.5H84.3l1.52-4.43h3.56L91,30.5H89.28v.23h4.16V30.5h-.88Zm-1,1.85,1.66,4.62H86l1.67-4.62ZM69.84,16.18H71V30.41H69.88v.32h5v-.32H73.26v-7h.13l5.82,7.35h3.1v-.32h-.88l-5.5-7.07c3.6-.09,5.41-1.39,5.41-3.88s-2-3.6-6.06-3.6h-5.4v.29Zm7.62.55a2.87,2.87,0,0,1,1.2,2.73,3.69,3.69,0,0,1-1,2.72,3.5,3.5,0,0,1-2.58.88h-1.9V16.18h1.34a5.63,5.63,0,0,1,2.91.56Zm38,2.73v.18h1.31V30.5h-1.2v.23h4V30.5h-1.24V25.07h5v5.45h-1.16v.23H126v-.23h-1.24V19.66H126v-.18h-3.8v.18h1.11v5.18h-5V19.66h1.25v-.18Zm-6,0h-4.39v.23h1V30.41h-1v.23h4.12v-.23h-1.34v-5h1.38q5.13,0,5.13-3a2.45,2.45,0,0,0-1-2.12,7,7,0,0,0-3.87-.83Zm-1.61.28h1.06a3.86,3.86,0,0,1,2.54.6,2.54,2.54,0,0,1,.78,2.13c0,1.85-1,2.77-2.86,2.77h-1.52v-5.5Zm-9.11-.23H94.5v.18h1.16V30.55H94.5v.23h8.73V27.27h-.18c-.46,2.17-1.57,3.28-3.19,3.28H97.14V19.66h1.71v-.18Z" transform="translate(0 0)"/>
</svg>
