<svg width="414" height="276" viewBox="0 0 414 276" fill="none" xmlns="http://www.w3.org/2000/svg">
<mask id="path-1-outside-1_84_250" maskUnits="userSpaceOnUse" x="-1" y="0" width="374" height="276" fill="black">
<rect fill="white" x="-1" width="374" height="276"/>
<path fill-rule="evenodd" clip-rule="evenodd" d="M33.4562 38.5694C29.7816 36.6531 27.8506 36.8962 26.8626 37.2638C20.3924 39.6713 13.1956 36.3779 10.7881 29.9078C8.38061 23.4376 11.674 16.2408 18.1442 13.8333C27.9062 10.2009 37.4252 12.4439 45.0162 16.4026C52.5268 20.3194 59.2542 26.4209 64.8434 32.8405C74.5409 43.9787 82.7493 58.3588 86.4564 70.1915C87.7505 72.1602 88.5034 74.5165 88.5034 77.0486V194.555C92.4844 203.736 99.9203 216.286 109.984 226.002C119.057 234.763 129.244 240.337 140.465 240.536C140.773 239.832 141.127 239.151 141.522 238.499C139.965 221.367 147.886 196.009 161.027 173.919C164.19 168.602 167.621 163.667 171.22 159.174C177.969 135.196 230.766 102.636 260.703 96.1855C255.823 88.7476 253.003 79.9612 253.003 70.5486C253.003 69.0883 253.071 67.6432 253.204 66.2158L251.326 32.7706L245.001 13.5482L258.501 16.0481L277.399 29.1626C285.144 24.6499 294.254 22.0486 304.003 22.0486C312.916 22.0486 320.895 24.4017 327.875 28.4901L343.507 18.0487L360.507 14.0487L353.508 59.0213C355.516 63.5028 357.185 68.2139 358.503 73.0486C358.503 77.0049 359.328 81.5002 360.164 86.0533C361.048 90.8738 361.945 95.7592 361.887 100.138C361.964 100.747 362.003 101.383 362.003 102.049C362.003 104.273 362.126 107.139 362.271 110.52C362.994 127.429 364.269 157.215 353.503 184.048C346.448 201.634 333.829 218.397 321.507 230.049H344.503C354.168 230.049 362.003 237.884 362.003 247.549C362.003 257.214 354.168 265.049 344.503 265.049H156.503C154.988 265.049 153.518 264.856 152.116 264.494C151.765 264.584 151.406 264.659 151.042 264.72C126.594 268.761 106.661 257.545 92.6193 243.988C78.6489 230.499 69.0825 213.462 64.3895 201.671C63.6524 199.819 63.389 197.896 63.5418 196.035C63.5163 195.71 63.5034 195.381 63.5034 195.049V81.0503C63.4256 80.7826 63.3561 80.5105 63.2953 80.2343C61.6526 72.7675 54.9972 59.6038 45.9884 49.2566C41.5651 44.1762 37.2112 40.5277 33.4562 38.5694Z"/>
</mask>
<path fill-rule="evenodd" clip-rule="evenodd" d="M33.4562 38.5694C29.7816 36.6531 27.8506 36.8962 26.8626 37.2638C20.3924 39.6713 13.1956 36.3779 10.7881 29.9078C8.38061 23.4376 11.674 16.2408 18.1442 13.8333C27.9062 10.2009 37.4252 12.4439 45.0162 16.4026C52.5268 20.3194 59.2542 26.4209 64.8434 32.8405C74.5409 43.9787 82.7493 58.3588 86.4564 70.1915C87.7505 72.1602 88.5034 74.5165 88.5034 77.0486V194.555C92.4844 203.736 99.9203 216.286 109.984 226.002C119.057 234.763 129.244 240.337 140.465 240.536C140.773 239.832 141.127 239.151 141.522 238.499C139.965 221.367 147.886 196.009 161.027 173.919C164.19 168.602 167.621 163.667 171.22 159.174C177.969 135.196 230.766 102.636 260.703 96.1855C255.823 88.7476 253.003 79.9612 253.003 70.5486C253.003 69.0883 253.071 67.6432 253.204 66.2158L251.326 32.7706L245.001 13.5482L258.501 16.0481L277.399 29.1626C285.144 24.6499 294.254 22.0486 304.003 22.0486C312.916 22.0486 320.895 24.4017 327.875 28.4901L343.507 18.0487L360.507 14.0487L353.508 59.0213C355.516 63.5028 357.185 68.2139 358.503 73.0486C358.503 77.0049 359.328 81.5002 360.164 86.0533C361.048 90.8738 361.945 95.7592 361.887 100.138C361.964 100.747 362.003 101.383 362.003 102.049C362.003 104.273 362.126 107.139 362.271 110.52C362.994 127.429 364.269 157.215 353.503 184.048C346.448 201.634 333.829 218.397 321.507 230.049H344.503C354.168 230.049 362.003 237.884 362.003 247.549C362.003 257.214 354.168 265.049 344.503 265.049H156.503C154.988 265.049 153.518 264.856 152.116 264.494C151.765 264.584 151.406 264.659 151.042 264.72C126.594 268.761 106.661 257.545 92.6193 243.988C78.6489 230.499 69.0825 213.462 64.3895 201.671C63.6524 199.819 63.389 197.896 63.5418 196.035C63.5163 195.71 63.5034 195.381 63.5034 195.049V81.0503C63.4256 80.7826 63.3561 80.5105 63.2953 80.2343C61.6526 72.7675 54.9972 59.6038 45.9884 49.2566C41.5651 44.1762 37.2112 40.5277 33.4562 38.5694Z" fill="white"/>
<path d="M26.8626 37.2638L30.35 46.636L30.35 46.636L26.8626 37.2638ZM33.4562 38.5694L38.0802 29.7027L38.0802 29.7027L33.4562 38.5694ZM10.7881 29.9078L20.1603 26.4204L20.1603 26.4204L10.7881 29.9078ZM18.1442 13.8333L14.6568 4.46108L14.6568 4.46108L18.1442 13.8333ZM45.0162 16.4026L49.6401 7.53589L45.0162 16.4026ZM64.8434 32.8405L72.3854 26.274L72.3854 26.274L64.8434 32.8405ZM86.4564 70.1915L76.9138 73.1811L77.3319 74.5157L78.1 75.6843L86.4564 70.1915ZM88.5034 194.555H78.5034V196.63L79.3288 198.533L88.5034 194.555ZM109.984 226.002L103.038 233.196L103.038 233.196L109.984 226.002ZM140.465 240.536L140.287 250.535L146.952 250.653L149.625 244.547L140.465 240.536ZM141.522 238.499L150.077 243.677L151.778 240.866L151.481 237.594L141.522 238.499ZM161.027 173.919L152.433 168.806L152.433 168.806L161.027 173.919ZM171.22 159.174L179.024 165.427L180.295 163.841L180.846 161.884L171.22 159.174ZM260.703 96.1855L262.809 105.961L277.061 102.89L269.064 90.7L260.703 96.1855ZM253.204 66.2158L263.161 67.1428L263.23 66.3999L263.188 65.655L253.204 66.2158ZM251.326 32.7706L261.31 32.2098L261.236 30.8955L260.825 29.6451L251.326 32.7706ZM245.001 13.5482L246.822 3.71534L230.227 0.642338L235.502 16.6737L245.001 13.5482ZM258.501 16.0481L264.202 7.8325L262.435 6.60672L260.321 6.21524L258.501 16.0481ZM277.399 29.1626L271.697 37.3781L276.93 41.0092L282.433 37.8031L277.399 29.1626ZM327.875 28.4901L322.821 37.119L328.224 40.2831L333.43 36.8055L327.875 28.4901ZM343.507 18.0487L341.216 8.31451L339.456 8.72871L337.952 9.73324L343.507 18.0487ZM360.507 14.0487L370.388 15.5865L372.671 0.913397L358.216 4.31451L360.507 14.0487ZM353.508 59.0213L343.627 57.4835L343.171 60.409L344.382 63.1108L353.508 59.0213ZM358.503 73.0486H368.503V71.7094L368.151 70.4174L358.503 73.0486ZM360.164 86.0533L370 84.2485L370 84.2484L360.164 86.0533ZM361.887 100.138L351.888 100.006L351.879 100.704L351.966 101.396L361.887 100.138ZM362.271 110.52L352.28 110.947L352.28 110.947L362.271 110.52ZM353.503 184.048L344.223 180.325L344.223 180.325L353.503 184.048ZM321.507 230.049L314.636 222.782L296.376 240.049H321.507V230.049ZM152.116 264.494L154.616 254.812L152.127 254.169L149.637 254.806L152.116 264.494ZM151.042 264.72L149.411 254.854L149.411 254.854L151.042 264.72ZM92.6193 243.988L85.6734 251.182L85.6734 251.182L92.6193 243.988ZM64.3895 201.671L55.0984 205.369L55.0984 205.369L64.3895 201.671ZM63.5418 196.035L73.5082 196.853L73.5738 196.055L73.5114 195.257L63.5418 196.035ZM63.5034 81.0503H73.5034V79.6261L73.1058 78.2585L63.5034 81.0503ZM63.2953 80.2343L53.5289 82.3829L53.5289 82.383L63.2953 80.2343ZM45.9884 49.2566L38.4464 55.823L38.4464 55.823L45.9884 49.2566ZM30.35 46.636C29.9118 46.7991 29.4416 46.9181 28.9651 46.9743C28.4981 47.0294 28.1368 47.011 27.915 46.9834C27.503 46.932 27.752 46.8728 28.8323 47.4362L38.0802 29.7027C32.7495 26.9227 27.8023 26.2443 23.3752 27.8916L30.35 46.636ZM1.41592 33.3951C5.74945 45.0414 18.7037 50.9696 30.35 46.636L23.3752 27.8916C22.0812 28.3731 20.6418 27.7144 20.1603 26.4204L1.41592 33.3951ZM14.6568 4.46108C3.01054 8.79462 -2.91761 21.7488 1.41592 33.3951L20.1603 26.4204C19.6788 25.1264 20.3375 23.687 21.6316 23.2055L14.6568 4.46108ZM49.6401 7.53589C40.5037 2.77126 27.9448 -0.483301 14.6568 4.46108L21.6316 23.2055C27.8676 20.8851 34.3466 22.1166 40.3922 25.2693L49.6401 7.53589ZM72.3854 26.274C66.3294 19.3183 58.6526 12.2359 49.6401 7.53589L40.3922 25.2693C46.401 28.4029 52.179 33.5235 57.3014 39.4069L72.3854 26.274ZM95.999 67.2018C91.828 53.8883 82.8701 38.3164 72.3854 26.274L57.3014 39.4069C66.2117 49.641 73.6705 62.8292 76.9138 73.1811L95.999 67.2018ZM98.5034 77.0486C98.5034 72.5053 97.1463 68.2486 94.8127 64.6986L78.1 75.6843C78.3548 76.0718 78.5034 76.5276 78.5034 77.0486H98.5034ZM98.5034 194.555V77.0486H78.5034V194.555H98.5034ZM79.3288 198.533C83.6925 208.597 91.8013 222.347 103.038 233.196L116.93 218.808C108.039 210.224 101.276 198.875 97.678 190.577L79.3288 198.533ZM103.038 233.196C113.19 242.998 125.666 250.275 140.287 250.535L140.643 230.538C132.822 230.399 124.925 226.527 116.93 218.808L103.038 233.196ZM132.967 233.32C132.347 234.346 131.79 235.416 131.304 236.526L149.625 244.547C149.757 244.247 149.907 243.957 150.077 243.677L132.967 233.32ZM152.433 168.806C138.795 191.731 129.733 219.269 131.563 239.404L151.481 237.594C150.197 223.464 156.977 200.287 169.621 179.032L152.433 168.806ZM163.417 152.921C159.523 157.781 155.829 163.098 152.433 168.806L169.621 179.032C172.551 174.106 175.719 169.552 179.024 165.427L163.417 152.921ZM258.596 86.4099C241.959 89.9949 220.088 100.451 201.691 112.805C192.404 119.042 183.658 125.99 176.682 133.14C169.886 140.106 163.953 148.084 161.594 156.465L180.846 161.884C181.862 158.275 185.06 153.192 190.997 147.107C196.754 141.206 204.344 135.115 212.841 129.409C230.015 117.876 249.51 108.827 262.809 105.961L258.596 86.4099ZM243.003 70.5486C243.003 81.9964 246.441 92.6768 252.342 101.671L269.064 90.7C265.205 84.8183 263.003 77.926 263.003 70.5486H243.003ZM243.247 65.2888C243.086 67.0239 243.003 68.7783 243.003 70.5486H263.003C263.003 69.3983 263.057 68.2625 263.161 67.1428L243.247 65.2888ZM241.341 33.3314L243.22 66.7766L263.188 65.655L261.31 32.2098L241.341 33.3314ZM235.502 16.6737L241.827 35.8962L260.825 29.6451L254.5 10.4227L235.502 16.6737ZM260.321 6.21524L246.822 3.71534L243.18 23.381L256.68 25.8809L260.321 6.21524ZM283.1 20.947L264.202 7.8325L252.799 24.2636L271.697 37.3781L283.1 20.947ZM304.003 12.0486C292.46 12.0486 281.616 15.1318 272.365 20.5221L282.433 37.8031C288.672 34.168 296.048 32.0486 304.003 32.0486V12.0486ZM332.929 19.8612C324.47 14.9066 314.754 12.0486 304.003 12.0486V32.0486C311.078 32.0486 317.32 33.8968 322.821 37.119L332.929 19.8612ZM337.952 9.73324L322.321 20.1747L333.43 36.8055L349.061 26.3641L337.952 9.73324ZM358.216 4.31451L341.216 8.31451L345.797 27.7829L362.797 23.7829L358.216 4.31451ZM363.389 60.5591L370.388 15.5865L350.626 12.5109L343.627 57.4835L363.389 60.5591ZM368.151 70.4174C366.704 65.1108 364.864 59.9101 362.633 54.9319L344.382 63.1108C346.168 67.0955 347.666 71.3169 348.856 75.6797L368.151 70.4174ZM370 84.2484C369.118 79.4449 368.503 75.9123 368.503 73.0486H348.503C348.503 78.0975 349.538 83.5554 350.328 87.8582L370 84.2484ZM371.886 100.271C371.959 94.7244 370.838 88.8185 370 84.2485L350.328 87.8581C351.259 92.9292 351.93 96.794 351.888 100.006L371.886 100.271ZM372.003 102.049C372.003 100.989 371.941 99.9314 371.807 98.8805L351.966 101.396C351.987 101.563 352.003 101.778 352.003 102.049H372.003ZM372.262 110.092C372.113 106.628 372.003 104.01 372.003 102.049H352.003C352.003 104.537 352.139 107.65 352.28 110.947L372.262 110.092ZM362.784 187.772C374.46 158.671 372.977 126.803 372.262 110.092L352.28 110.947C353.012 128.055 354.079 155.758 344.223 180.325L362.784 187.772ZM328.377 237.315C341.537 224.872 355.092 206.946 362.784 187.772L344.223 180.325C337.805 196.321 326.122 211.922 314.636 222.782L328.377 237.315ZM344.503 220.049H321.507V240.049H344.503V220.049ZM372.003 247.549C372.003 232.361 359.691 220.049 344.503 220.049V240.049C348.646 240.049 352.003 243.406 352.003 247.549H372.003ZM344.503 275.049C359.691 275.049 372.003 262.736 372.003 247.549H352.003C352.003 251.691 348.646 255.049 344.503 255.049V275.049ZM156.503 275.049H344.503V255.049H156.503V275.049ZM149.616 274.177C151.828 274.748 154.138 275.049 156.503 275.049V255.049C155.839 255.049 155.208 254.964 154.616 254.812L149.616 274.177ZM149.637 254.806C149.565 254.825 149.49 254.841 149.411 254.854L152.673 274.586C153.323 274.478 153.964 274.343 154.595 274.182L149.637 254.806ZM149.411 254.854C129.23 258.189 112.321 249.11 99.5652 236.793L85.6734 251.182C101 265.979 123.958 279.332 152.673 274.586L149.411 254.854ZM99.5652 236.793C86.8366 224.504 77.9757 208.764 73.6806 197.973L55.0984 205.369C60.1894 218.16 70.4611 236.494 85.6734 251.182L99.5652 236.793ZM73.6806 197.973C73.5265 197.586 73.4789 197.211 73.5082 196.853L53.5753 195.217C53.2992 198.581 53.7782 202.052 55.0984 205.369L73.6806 197.973ZM53.5034 195.049C53.5034 195.641 53.5265 196.229 53.5721 196.814L73.5114 195.257C73.5062 195.19 73.5034 195.121 73.5034 195.049H53.5034ZM53.5034 81.0503V195.049H73.5034V81.0503H53.5034ZM53.5289 82.383C53.6372 82.8755 53.7614 83.362 53.901 83.842L73.1058 78.2585C73.0897 78.2032 73.075 78.1456 73.0618 78.0857L53.5289 82.383ZM38.4464 55.823C46.6514 65.247 52.3318 76.9416 53.5289 82.3829L73.0618 78.0857C70.9735 68.5933 63.343 53.9605 53.5304 42.6901L38.4464 55.823ZM28.8323 47.4362C31.0844 48.6107 34.4888 51.2775 38.4464 55.823L53.5304 42.6901C48.6414 37.0748 43.3381 32.4447 38.0802 29.7027L28.8323 47.4362Z" fill="black" mask="url(#path-1-outside-1_84_250)"/>
<ellipse cx="285.5" cy="62" rx="2.5" ry="5" fill="#219842"/>
<ellipse cx="322.5" cy="62" rx="2.5" ry="5" fill="#466FFF"/>
<ellipse cx="304" cy="74.5" rx="2.5" ry="5" transform="rotate(90 304 74.5)" fill="black"/>
<path d="M253 90.5C286.333 104.5 360.2 125.7 389 98.5C417.8 71.3 386.333 74.8334 367 80" stroke="#F43792" stroke-width="25" stroke-linecap="round"/>
</svg>
