<svg width="143" height="125" viewBox="0 0 143 125" fill="none" xmlns="http://www.w3.org/2000/svg">
<path fill-rule="evenodd" clip-rule="evenodd" d="M106.46 0.648063C104.056 -0.710716 101.006 0.136598 99.647 2.54059L93.1002 14.1234L86.0938 4.13045C84.5085 1.86941 81.3904 1.32161 79.1294 2.9069C76.8683 4.4922 76.3205 7.61027 77.9058 9.87131L87.1098 22.9985C87.0203 23.417 86.9835 23.8539 87.0062 24.3016C87.0151 24.4747 87.0326 24.6452 87.0583 24.8129L82.2896 33.2499L75.0748 23.1034C74.4463 22.2195 73.583 21.6014 72.6301 21.2737C72.3782 21.0488 72.0997 20.8462 71.7957 20.6708C69.4043 19.29 66.3463 20.1094 64.9656 22.5009L59.7452 31.5428L55.0837 23.2956L63.6255 8.50086C65.0062 6.1094 64.1868 3.05145 61.7954 1.67074C59.4039 0.290026 56.3459 1.1094 54.9652 3.50086L49.3715 13.1894L43.3526 2.54059C41.9939 0.136598 38.9435 -0.710716 36.5395 0.648063C34.1355 2.00684 33.2882 5.05717 34.647 7.46116L41.1694 19.0009L27.9995 19.0009C25.2381 19.0009 22.9995 21.2395 22.9995 24.0009C22.9995 26.7623 25.2381 29.0009 27.9995 29.0009L46.8216 29.0009L51.9086 38.0009H39.9998C39.8311 38.0009 39.6643 38.0092 39.4998 38.0256C38.4921 37.9234 37.444 38.1256 36.4998 38.6707C34.1084 40.0515 33.289 43.1094 34.6697 45.5009L40.7319 56.0009H31.4081L22.3138 40.4739C20.9182 38.0911 17.8552 37.2908 15.4724 38.6864C13.0896 40.0821 12.2893 43.1451 13.6849 45.5279L19.819 56.0009H5C2.23857 56.0009 2.41416e-07 58.2394 0 61.0009C-2.41416e-07 63.7623 2.23857 66.0009 5 66.0009H19.4792L12.7478 76.8808C11.2949 79.2291 12.0208 82.3106 14.3691 83.7635C16.7174 85.2164 19.7989 84.4905 21.2518 82.1422L31.2384 66.0009H40.6351L34.6697 76.3333C33.289 78.7247 34.1084 81.7827 36.4998 83.1634C37.1888 83.5612 37.9331 83.7764 38.6767 83.8239C39.0981 83.9393 39.5418 84.0009 39.9998 84.0009H53.6042L48.8441 92.4226C48.1236 92.4722 47.4026 92.6794 46.7318 93.0583L46.6956 93.0789L28.8613 93.5732C26.1009 93.6497 23.9252 95.9494 24.0017 98.7098C24.0782 101.47 26.378 103.646 29.1383 103.569L42.7571 103.192L34.647 117.541C33.2882 119.945 34.1355 122.995 36.5395 124.354C38.9435 125.712 41.9938 124.865 43.3526 122.461L50.4775 109.856L54.9647 117.799C56.3228 120.204 59.3729 121.052 61.7773 119.694C64.1817 118.336 65.0298 115.286 63.6716 112.881L56.2219 99.6925L60.3825 92.3313L64.9064 98.66C65.3493 99.2796 65.9076 99.7678 66.5312 100.116C66.6812 100.26 66.8419 100.397 67.013 100.524C69.2276 102.174 72.3601 101.716 74.0097 99.5012L81.2077 89.8377L86.1736 98.6237L77.6718 113.321C76.2891 115.711 77.1059 118.77 79.4962 120.153C81.8865 121.535 84.9452 120.719 86.3279 118.328L91.883 108.725L99.647 122.461C101.006 124.865 104.056 125.712 106.46 124.354C108.864 122.995 109.711 119.945 108.353 117.541L100.22 103.152L112.65 103.001C115.412 102.967 117.623 100.701 117.589 97.9401C117.556 95.1789 115.29 92.9677 112.529 93.0012L94.6057 93.2191L89.3954 84.0009H102.591C103.054 84.0009 103.502 83.938 103.928 83.8202C104.894 83.8924 105.892 83.6848 106.795 83.1634C109.187 81.7827 110.006 78.7247 108.625 76.3333L102.66 66.0009H112.029L120.453 81.4765C121.773 83.9019 124.81 84.7977 127.235 83.4774C129.66 82.1572 130.556 79.1207 129.236 76.6954L123.414 66.0009H137.098C139.86 66.0009 142.098 63.7623 142.098 61.0009C142.098 58.2395 139.86 56.0009 137.098 56.0009H123.278L128.615 45.2188C129.84 42.744 128.826 39.7447 126.352 38.5197C123.877 37.2948 120.877 38.308 119.652 40.7829L112.12 56.0009H100.563L106.625 45.5009C108.006 43.1094 107.187 40.0514 104.795 38.6707C103.897 38.1518 102.904 37.9436 101.941 38.0129C101.825 38.0049 101.708 38.0009 101.591 38.0009L91.0911 38.0009L96.2709 28.8366L112.818 27.9944C115.576 27.8541 117.698 25.5046 117.558 22.7467C117.417 19.9889 115.068 17.867 112.31 18.0073L102.098 18.5271L108.353 7.46116C109.711 5.05717 108.864 2.00684 106.46 0.648063ZM89.0163 56.0009L93.6351 48.0009H85.4389L80.9171 56.0009H89.0163ZM62.0825 56.0009L57.5607 48.0009H47.6601L52.2789 56.0009H62.0825ZM52.1821 66.0009H63.7781L59.2564 74.0009H57.058C57.0375 74.0006 57.017 74.0005 56.9965 74.0005L56.972 74.0006L56.9332 74.0009H47.5633L52.1821 66.0009ZM79.2215 66.0009H91.1131L95.7319 74.0009H83.7432L79.2215 66.0009ZM75.828 80.3198L69.8375 88.3622L65.8103 82.7283L71.4998 72.6623L75.828 80.3198ZM76.1331 41.848L70.1779 33.4729L65.4574 41.649L71.4998 52.3395L76.1312 44.1455C76.0451 43.7779 75.9995 43.3947 75.9995 43.0009C75.9995 42.6041 76.0458 42.2181 76.1331 41.848Z" fill="black"/>
</svg>
