<svg width="211" height="154" viewBox="0 0 211 154" fill="none" xmlns="http://www.w3.org/2000/svg">
<g filter="url(#filter0_d_42_1721)">
<path d="M101.143 86.6537C103.396 117.385 83.5669 143.886 56.8528 145.845C30.1387 147.803 6.65596 124.478 4.40265 93.7469C2.14933 63.0154 23.0316 50.8745 49.7457 48.9157C76.4598 46.957 98.8896 55.9221 101.143 86.6537Z" fill="#FE0D47"/>
<path fill-rule="evenodd" clip-rule="evenodd" d="M56.3263 138.665C78.1851 137.062 96.0102 114.909 93.977 87.1791C92.9892 73.7073 87.7792 66.0391 80.7823 61.6129C73.3865 56.9342 62.8739 55.1717 50.2722 56.0957C37.6704 57.0197 27.5274 60.2967 20.893 66.0041C14.6166 71.4035 10.5808 79.7496 11.5686 93.2215C13.6018 120.951 34.4675 140.268 56.3263 138.665ZM56.8528 145.845C83.5669 143.886 103.396 117.385 101.143 86.6537C98.8896 55.9221 76.4598 46.957 49.7457 48.9157C23.0316 50.8745 2.14933 63.0154 4.40265 93.7469C6.65596 124.478 30.1387 147.803 56.8528 145.845Z" fill="black"/>
<path fill-rule="evenodd" clip-rule="evenodd" d="M61.0338 46.7278C61.0455 46.8864 61.0543 47.0445 61.0604 47.2021C70.1563 43.6968 79.0237 42.1598 82.6443 43.7272C87.1532 45.6791 81.8173 51.7064 70.7263 57.1895C69.1206 57.9833 67.4823 58.7222 65.8407 59.3995C68.246 60.5377 70.5797 61.9249 72.6657 63.5098C80.1788 69.2179 81.6346 75.3273 75.9172 77.1556C70.1998 78.9838 59.4743 75.8385 51.9611 70.1304C51.7376 69.9606 51.5195 69.7905 51.3068 69.6201C51.2417 69.7213 51.1754 69.8228 51.1078 69.9244C46.459 76.9142 37.6177 82.1216 31.3601 81.5554C25.1026 80.9891 23.7985 74.8637 28.4473 67.8739C29.5963 66.1462 31.0015 64.5274 32.5605 63.0778C29.8754 62.439 27.1433 61.6326 24.4908 60.6713C13.1999 56.5792 7.6265 51.2299 12.0423 48.7233C16.0628 46.4411 26.9777 47.3023 37.4216 50.5632C37.2656 49.8901 37.1592 49.195 37.1069 48.4822C36.5919 41.4586 41.5306 35.3721 48.1379 34.8876C54.7451 34.4032 60.5189 39.7042 61.0338 46.7278Z" fill="#239111"/>
<path fill-rule="evenodd" clip-rule="evenodd" d="M33.6624 44.8008C34.4155 37.1577 40.0969 30.7619 47.7717 30.1992C55.0522 29.6653 61.3237 34.5861 63.5366 41.4542C66.8272 40.3576 70.0268 39.5371 72.9076 39.0564C74.9266 38.7195 76.8547 38.5384 78.5867 38.5673C80.268 38.5954 82.0157 38.8234 83.5218 39.4935C84.4845 39.9219 85.4739 40.588 86.2111 41.6236C86.9833 42.7083 87.3068 43.9598 87.2575 45.1961C87.1687 47.4236 85.9015 49.3436 84.6866 50.7502C82.3184 53.4922 78.2926 56.3838 73.2697 59.0468C73.6682 59.3333 74.0607 59.6268 74.4463 59.9272C78.4154 63.0195 81.4103 66.6636 82.2806 70.3794C82.7407 72.3434 82.6309 74.4937 81.5109 76.4143C80.407 78.3074 78.6087 79.4845 76.6259 80.1309C72.8108 81.3745 67.9313 80.8117 63.3854 79.4384C59.553 78.2807 55.5629 76.4291 51.9975 74.0425C49.6282 76.9065 46.7255 79.3563 43.706 81.1748C39.832 83.5079 35.353 85.0445 31.2481 84.6566C29.1444 84.4578 27.1862 83.7522 25.6083 82.4243C24.0101 81.0793 23.0155 79.2726 22.5978 77.2787C21.7905 73.4255 23.1322 69.092 25.6955 65.1372C25.8836 64.8471 26.0772 64.5603 26.2762 64.2769C25.3589 63.9758 24.4451 63.6561 23.5394 63.3184C17.7849 61.1728 13.073 58.5654 10.3156 55.8537C9.00077 54.5607 7.59632 52.7259 7.40374 50.4507C7.16889 47.6761 8.7786 45.6881 10.6718 44.5894C12.2702 43.6618 14.2387 43.2108 16.1795 42.9994C18.1798 42.7816 20.4457 42.789 22.8336 42.9753C26.1746 43.2361 29.8885 43.858 33.6624 44.8008ZM48.3066 37.4946C43.9364 37.8151 40.3347 42.0237 40.7228 47.3161C40.7618 47.8481 40.84 48.3641 40.9533 48.8613L42.3699 55.0784L36.438 53.1712C31.5098 51.5868 26.5037 50.5946 22.3229 50.2683C20.2316 50.1051 18.4153 50.114 16.9576 50.2728C16.2392 50.351 15.6669 50.4596 15.2227 50.5759L15.2262 50.5794C16.9242 52.2492 20.5446 54.4311 25.9436 56.4442C28.4298 57.3713 30.9982 58.1525 33.5255 58.7728L40.019 60.3664L35.1369 65.0163C33.7826 66.3061 32.5856 67.7257 31.6245 69.2085C29.6112 72.3147 29.3136 74.6103 29.5559 75.7669C29.663 76.2781 29.8653 76.5715 30.1051 76.7733C30.3653 76.9923 30.8863 77.2802 31.8717 77.3734C33.945 77.5693 36.9145 76.7725 40.0886 74.8609C43.1994 72.9874 46.1087 70.2758 48.069 67.2514C48.1253 67.1645 48.1805 67.078 48.2344 66.9918L50.3618 63.5952L53.4443 66.1264C53.6304 66.2792 53.822 66.4325 54.0192 66.5861C57.3627 69.1911 61.4716 71.245 65.3678 72.422C69.3856 73.6358 72.6232 73.7536 74.4489 73.1585C74.8647 73.0229 75.1123 72.8804 75.2471 72.7815C75.3134 72.7329 75.3524 72.6949 75.3731 72.6723C75.3934 72.6501 75.4014 72.6364 75.4014 72.6364C75.4014 72.6364 75.4027 72.6342 75.4039 72.6305C75.4053 72.6263 75.4104 72.6093 75.4142 72.5745C75.4218 72.504 75.4256 72.3406 75.3608 72.064C75.0607 70.7827 73.6181 68.4429 70.1603 65.7489C68.3145 64.3108 66.2237 63.0316 64.0471 61.9735L56.7451 58.4235L64.1974 55.2844C65.7456 54.6322 67.2883 53.9215 68.7972 53.1593C74.0685 50.4966 77.6297 47.8609 79.3217 45.9211C79.0801 45.9001 78.8068 45.8855 78.4996 45.8804C77.3044 45.8604 75.8133 45.9861 74.0759 46.276C70.6031 46.8554 66.4085 48.0466 62.1016 49.7404L57.4641 51.5643L57.2619 46.4584C57.2572 46.3412 57.2506 46.2233 57.2419 46.1048C56.8539 40.8125 52.6768 37.1742 48.3066 37.4946Z" fill="black"/>
<path d="M37.2469 91.7108C38.5151 95.2861 38.3455 98.6219 36.8681 99.1615C35.3906 99.7011 33.1647 97.2403 31.8964 93.665C30.6281 90.0898 30.7977 86.754 32.2752 86.2143C33.7527 85.6747 35.9786 88.1356 37.2469 91.7108Z" fill="white"/>
<path d="M56.6223 90.0636C56.9072 93.949 55.7632 97.1996 54.067 97.3239C52.3709 97.4483 50.765 94.3994 50.4801 90.5139C50.1952 86.6285 51.3392 83.378 53.0354 83.2536C54.7315 83.1292 56.3374 86.1782 56.6223 90.0636Z" fill="white"/>
<path d="M75.5924 89.5106C74.2701 93.0586 72.0072 95.4722 70.5381 94.9015C69.0691 94.3309 68.9501 90.992 70.2725 87.444C71.5948 83.8961 73.8577 81.4825 75.3267 82.0531C76.7958 82.6238 76.9147 85.9626 75.5924 89.5106Z" fill="white"/>
<path d="M51.6626 117.692C52.483 121.399 51.9056 124.686 50.3731 125.034C48.8405 125.381 46.933 122.658 46.1126 118.95C45.2922 115.243 45.8695 111.956 47.4021 111.608C48.9346 111.261 50.8421 113.984 51.6626 117.692Z" fill="white"/>
<path d="M69.4145 116.02C68.6197 119.728 66.7311 122.456 65.1961 122.111C63.6611 121.766 63.0611 118.48 63.8559 114.771C64.6507 111.063 66.5394 108.336 68.0744 108.68C69.6093 109.025 70.2093 112.311 69.4145 116.02Z" fill="white"/>
</g>
<g filter="url(#filter1_d_42_1721)">
<path d="M61.1115 35.0692C64.3568 25.9487 70.4324 18.3654 76.2638 10.7783C79.0324 7.17611 84.8371 3.92621 89.522 3.7023C103.78 3.02082 120.156 4.24665 123.615 21.6036C124.284 24.9622 124.179 26.0596 121.931 29.1549C121.136 30.2506 117.484 34.6685 115.565 32.9569C112.416 30.1474 112.251 25.191 112.251 21.3924C112.251 17.7671 112.498 14.4568 113.145 10.8839C114.039 5.947 125.03 4.62745 128.666 3.91352C138.832 1.91716 157.381 2.44827 162.443 13.2074C164.309 17.1743 166.231 22.3282 166.231 26.7258C166.231 30.7156 164.726 41.7228 159.128 41.7228C152.768 41.7228 145.946 43.9446 146.396 35.8085C146.68 30.6716 147.01 24.062 149.184 19.3329C150.875 15.6571 160.001 13.2106 163.337 11.5704C176.03 5.33046 191.029 6.3824 204.111 11.3064" stroke="black" stroke-width="5" stroke-linecap="round" shape-rendering="crispEdges"/>
</g>
<defs>
<filter id="filter0_d_42_1721" x="0.235962" y="30.1595" width="105.081" height="123.8" filterUnits="userSpaceOnUse" color-interpolation-filters="sRGB">
<feFlood flood-opacity="0" result="BackgroundImageFix"/>
<feColorMatrix in="SourceAlpha" type="matrix" values="0 0 0 0 0 0 0 0 0 0 0 0 0 0 0 0 0 0 127 0" result="hardAlpha"/>
<feOffset dy="4"/>
<feGaussianBlur stdDeviation="2"/>
<feComposite in2="hardAlpha" operator="out"/>
<feColorMatrix type="matrix" values="0 0 0 0 0 0 0 0 0 0 0 0 0 0 0 0 0 0 0.25 0"/>
<feBlend mode="normal" in2="BackgroundImageFix" result="effect1_dropShadow_42_1721"/>
<feBlend mode="normal" in="SourceGraphic" in2="effect1_dropShadow_42_1721" result="shape"/>
</filter>
<filter id="filter1_d_42_1721" x="54.6107" y="0.5" width="156.001" height="52.0001" filterUnits="userSpaceOnUse" color-interpolation-filters="sRGB">
<feFlood flood-opacity="0" result="BackgroundImageFix"/>
<feColorMatrix in="SourceAlpha" type="matrix" values="0 0 0 0 0 0 0 0 0 0 0 0 0 0 0 0 0 0 127 0" result="hardAlpha"/>
<feOffset dy="4"/>
<feGaussianBlur stdDeviation="2"/>
<feComposite in2="hardAlpha" operator="out"/>
<feColorMatrix type="matrix" values="0 0 0 0 0 0 0 0 0 0 0 0 0 0 0 0 0 0 0.25 0"/>
<feBlend mode="normal" in2="BackgroundImageFix" result="effect1_dropShadow_42_1721"/>
<feBlend mode="normal" in="SourceGraphic" in2="effect1_dropShadow_42_1721" result="shape"/>
</filter>
</defs>
</svg>
