<svg width="333" height="396" viewBox="0 0 333 396" fill="none" xmlns="http://www.w3.org/2000/svg">
<path d="M333 205.532C333 310.724 258.455 396 166.5 396C74.5446 396 0 310.724 0 205.532C0 100.339 74.5446 64.2162 166.5 64.2162C258.455 64.2162 333 100.339 333 205.532Z" fill="#FBADC0"/>
<path fill-rule="evenodd" clip-rule="evenodd" d="M166.5 371.423C241.742 371.423 308.333 300.449 308.333 205.532C308.333 159.418 292.42 132.01 269.576 115.193C245.428 97.418 209.878 88.7928 166.5 88.7928C123.122 88.7928 87.5717 97.418 63.4244 115.193C40.5797 132.01 24.6667 159.418 24.6667 205.532C24.6667 300.449 91.2575 371.423 166.5 371.423ZM166.5 396C258.455 396 333 310.724 333 205.532C333 100.339 258.455 64.2162 166.5 64.2162C74.5446 64.2162 0 100.339 0 205.532C0 310.724 74.5446 396 166.5 396Z" fill="black"/>
<path fill-rule="evenodd" clip-rule="evenodd" d="M205.698 59.5851C205.698 60.1279 205.688 60.6684 205.67 61.2064C237.692 51.5427 268.438 48.5236 280.441 54.7638C295.388 62.5351 275.606 81.7238 236.256 97.623C230.559 99.9249 224.765 102.032 218.974 103.928C226.924 108.403 234.565 113.709 241.31 119.626C265.6 140.935 269.051 162.099 249.016 166.896C228.982 171.694 193.05 158.308 168.759 136.998C168.037 136.364 167.333 135.73 166.647 135.097C166.399 135.426 166.146 135.754 165.89 136.083C148.218 158.721 116.64 174.243 95.3575 170.753C74.0751 167.263 71.1478 146.083 88.8192 123.445C93.187 117.85 98.4045 112.689 104.106 108.143C95.0731 105.298 85.9215 101.87 77.0811 97.9351C39.4506 81.1843 21.7114 61.5806 37.4594 54.1488C51.7976 47.3825 88.9518 53.0391 123.891 66.7487C123.526 64.4181 123.336 62.0251 123.336 59.5851C123.336 35.5436 141.773 16.0541 164.517 16.0541C187.26 16.0541 205.698 35.5436 205.698 59.5851Z" fill="#90CC86"/>
<path fill-rule="evenodd" clip-rule="evenodd" d="M112.467 46.1913C116.964 20.357 138.022 0 164.44 0C189.501 0 209.738 18.3191 215.59 42.2551C227.132 39.343 238.293 37.348 248.277 36.4306C255.274 35.7876 261.921 35.6523 267.844 36.1832C273.593 36.6985 279.52 37.911 284.508 40.5686C287.696 42.2674 290.917 44.7822 293.181 48.4921C295.552 52.3779 296.346 56.7197 295.867 60.9163C295.003 68.4781 290.183 74.6987 285.67 79.1846C276.873 87.9289 262.364 96.7689 244.498 104.582C245.791 105.656 247.061 106.754 248.305 107.872C261.118 119.392 270.458 132.546 272.505 145.414C273.587 152.216 272.671 159.51 268.354 165.769C264.099 171.939 257.647 175.498 250.696 177.203C237.322 180.485 220.757 177.351 205.537 171.54C192.706 166.642 179.51 159.342 167.902 150.326C159.071 159.486 148.518 167.102 137.723 172.539C123.873 179.516 108.152 183.629 94.1954 181.284C87.0426 180.082 80.5153 177.19 75.4465 172.276C70.3122 167.297 67.3602 160.898 66.4306 154.005C64.6341 140.685 70.3155 126.266 80.0847 113.441C80.8014 112.5 81.5365 111.572 82.2888 110.657C79.2237 109.403 76.1753 108.086 73.1591 106.71C53.9957 97.9686 38.5176 87.9151 29.7575 77.9944C25.5804 73.2639 21.2325 66.6664 21.1443 58.8719C21.0367 49.367 27.0471 43.0003 33.805 39.7322C39.5104 36.973 46.3633 35.9289 53.0612 35.6939C59.9646 35.4517 67.7207 36.0424 75.8497 37.273C87.223 38.9947 99.7826 42.0392 112.467 46.1913ZM164.44 24.9721C149.397 24.9721 136.009 38.402 136.009 56.5174C136.009 58.3385 136.147 60.1148 136.41 61.8361L139.7 83.3568L119.869 75.3826C103.393 68.7578 86.5027 64.1302 72.2702 61.9756C65.1512 60.8979 58.9301 60.4748 53.8994 60.6513C51.42 60.7383 49.4335 60.9651 47.8833 61.2502C47.8871 61.2544 47.8908 61.2587 47.8946 61.2629C53.2889 67.3719 65.1368 75.7046 83.1162 83.9062C91.3961 87.6832 99.9935 90.9842 108.491 93.7269L130.323 100.774L112.44 115.386C107.48 119.439 103.025 123.974 99.3623 128.782C91.6893 138.855 90.0942 146.597 90.6335 150.595C90.8718 152.362 91.4907 153.411 92.2611 154.159C93.0971 154.969 94.8085 156.08 98.159 156.643C105.208 157.827 115.575 155.856 126.923 150.14C138.044 144.538 148.685 136.032 156.156 126.224C156.371 125.942 156.581 125.662 156.788 125.382L164.924 114.349L174.843 123.736C175.441 124.303 176.059 124.872 176.695 125.444C187.489 135.148 201.041 143.167 214.086 148.147C227.537 153.282 238.592 154.492 244.993 152.921C246.45 152.563 247.334 152.14 247.82 151.837C248.06 151.688 248.202 151.569 248.279 151.497C248.354 151.426 248.382 151.387 248.385 151.382C248.388 151.377 248.39 151.374 248.395 151.362C248.401 151.348 248.423 151.292 248.444 151.174C248.488 150.936 248.542 150.38 248.39 149.423C247.684 144.985 243.332 136.659 232.169 126.623C226.211 121.266 219.374 116.389 212.187 112.243L188.078 98.3343L214.381 89.5069C219.845 87.673 225.306 85.6383 230.663 83.42C249.379 75.6704 262.234 67.5857 268.514 61.4037C267.692 61.2719 266.76 61.154 265.709 61.0598C261.622 60.6935 256.486 60.7491 250.464 61.3024C238.429 62.4084 223.768 65.4166 208.597 70.1084L192.261 75.1603L192.851 57.7262C192.864 57.3259 192.871 56.9229 192.871 56.5174C192.871 38.402 179.483 24.9721 164.44 24.9721Z" fill="black"/>
<path d="M112.963 206.798C116.408 219.288 114.99 230.602 109.796 232.071C104.602 233.539 97.5985 224.605 94.1537 212.116C90.7089 199.627 92.1269 188.312 97.321 186.844C102.515 185.375 109.518 194.309 112.963 206.798Z" fill="white"/>
<path d="M179.714 206.027C179.714 219.327 174.981 230.108 169.143 230.108C163.304 230.108 158.571 219.327 158.571 206.027C158.571 192.727 163.304 181.946 169.143 181.946C174.981 181.946 179.714 192.727 179.714 206.027Z" fill="white"/>
<path d="M244.803 208.88C239.385 220.629 231.031 228.282 226.145 225.972C221.258 223.663 221.689 212.266 227.107 200.516C232.525 188.766 240.879 181.114 245.765 183.424C250.652 185.733 250.221 197.13 244.803 208.88Z" fill="white"/>
<path d="M155.797 298.853C157.676 311.68 154.874 322.727 149.539 323.528C144.205 324.328 138.358 314.579 136.479 301.753C134.601 288.926 137.403 277.879 142.737 277.078C148.072 276.277 153.919 286.026 155.797 298.853Z" fill="white"/>
<path d="M216.996 297.592C213.344 310.021 206.193 318.834 201.024 317.277C195.855 315.72 194.626 304.383 198.278 291.954C201.93 279.526 209.081 270.712 214.25 272.269C219.419 273.826 220.648 285.164 216.996 297.592Z" fill="white"/>
</svg>
